<svg xmlns="http://www.w3.org/2000/svg" width="4000" height="6000" viewBox="0 0 4000 6000">
  <rect width="4000" height="6000" opacity="0.6"/>
  <g>
    <path d="M555.279,2240.7v-85.954L515.935,2240.7H503.769l-39.5-85.954V2240.7H451.944V2139.58H470.43l39.5,87.851,39.027-87.851h18.8V2240.7Z" fill="#fff"/>
    <path d="M658.451,2240.862c0,15.642-5.688,32.39-37.131,32.39-29.231,0-36.815-12.008-36.815-28.124h11.85c.316,10.586,4.108,18.644,24.965,18.644,21.647,0,25.28-10.428,25.28-22.12v-13.905c-3.476,8.374-11.534,13.905-28.44,13.905-27.335,0-32.707-14.853-32.707-38.4V2159.8h11.692v44.4c0,17.381,3.476,27.335,24.175,27.335,20.857,0,25.28-10.112,25.28-27.809V2159.8h11.851Z" fill="#fff"/>
    <path d="M770.785,2240.7V2196.62c0-17.38-3.318-27.651-24.017-27.651s-25.28,9.955-25.28,27.651V2240.7H709.637v-80.9h5.53l3.477,14.694c3.159-8.374,11.85-15.642,31.284-15.642,27.493,0,32.708,15.326,32.708,38.711V2240.7Z" fill="#fff"/>
    <path d="M862.267,2240.7l-2.527-16.432c-4.425,9.954-17.223,17.381-34.13,17.381-17.222,0-31.127-7.427-31.127-24.017,0-14.7,10.271-20.857,33.181-23.543l29.389-3.476c-.158-14.537-4.9-22.279-25.28-22.279-18.487,0-23.385,7.585-23.385,19.593H796.7c0-16.748,7.109-29.073,34.919-29.073,32.548,0,37.289,13.905,37.289,35.393V2240.7Zm-5.214-41.081-27.65,3.792c-16.591,2.371-22.6,5.847-22.6,14.063,0,9.638,8.058,14.694,21.33,14.694,16.117,0,28.915-9.164,28.915-27.019Z" fill="#fff"/>
    <path d="M984.4,2240.7v-47.559c0-14.694-3.318-24.017-18.644-24.017-15.485,0-19.593,9.007-19.593,24.017V2240.7H934.156v-47.559c0-14.694-3.635-24.017-18.961-24.017s-19.593,9.007-19.593,24.017V2240.7h-11.85v-80.9h5.372l3.635,12.64c2.843-7.11,10.9-13.588,25.912-13.588,13.9,0,21.173,5.846,24.175,15.8,2.37-8.533,10.27-15.8,26.387-15.8,22.278,0,27.335,15.011,27.335,34.919V2240.7Z" fill="#fff"/>
    <path d="M1047.756,2241.652c-33.023,0-40.449-20.067-40.449-41.872,0-20.856,8.216-40.923,40.291-40.923,28.283,0,36.657,17.855,36.657,40.291,0,2.212,0,3.792-.158,6h-64.308c.79,15.959,8.058,27.177,27.651,27.177,16.906,0,23.069-8.374,24.491-16.906h12.324C1082.991,2229.327,1073.669,2241.652,1047.756,2241.652Zm-1.106-73.315c-20.54,0-26.387,12.8-26.861,27.335h52.142C1071.931,2180.188,1064.979,2168.337,1046.65,2168.337Z" fill="#fff"/>
    <path d="M1137.811,2149.693c-5.53,0-9.006-1.58-9.006-7.268,0-6.005,3.476-7.111,9.006-7.111,5.214,0,8.69,1.106,8.69,7.111C1146.5,2148.113,1143.025,2149.693,1137.811,2149.693Zm-6,91.01v-80.9H1143.5v80.9Z" fill="#fff"/>
    <path d="M1193.426,2241.652c-26.7,0-38.711-10.587-38.237-31.127h11.534c-.158,13.746,7.743,21.488,26.545,21.488,17.222,0,22.91-6.636,23.069-12.8.79-21.015-59.252-8.374-59.568-36.973-.316-13.747,9.8-23.385,34.445-23.385,25.6,0,34.761,12.166,34.761,29.863h-11.06c-.316-12.641-6.479-20.383-24.017-20.383-17.065,0-22.595,5.846-22.279,13.273.316,18.486,59.41,7.584,59.41,36.973C1228.029,2230.117,1218.391,2241.652,1193.426,2241.652Z" fill="#fff"/>
    <path d="M1310.184,2210.525c0,21.014-5.53,30.969-28.915,30.969a111.211,111.211,0,0,1-13.588-.949v-9.954a90.531,90.531,0,0,0,10.428.79c16.433,0,19.751-7.11,19.751-20.224V2139.58h12.324Z" fill="#fff"/>
    <path d="M1392.5,2240.7l-2.528-16.432c-4.424,9.954-17.223,17.381-34.129,17.381-17.223,0-31.127-7.427-31.127-24.017,0-14.7,10.27-20.857,33.181-23.543l29.389-3.476c-.158-14.537-4.9-22.279-25.281-22.279-18.487,0-23.385,7.585-23.385,19.593h-11.692c0-16.748,7.11-29.073,34.919-29.073,32.549,0,37.289,13.905,37.289,35.393V2240.7Zm-5.214-41.081-27.651,3.792c-16.591,2.371-22.6,5.847-22.6,14.063,0,9.638,8.058,14.694,21.331,14.694,16.116,0,28.915-9.164,28.915-27.019Z" fill="#fff"/>
    <path d="M1467.233,2240.7l-41.4-37.447V2240.7h-11.693V2128.994h11.693V2193.3l36.973-33.5h17.38l-44.873,38.395,48.823,42.5Z" fill="#fff"/>
    <path d="M1557.449,2240.7l-2.369-14.536c-3.16,8.216-11.851,15.485-31.285,15.485-27.493,0-32.707-15.011-32.707-38.238V2159.8h11.534v44.557c0,17.381,3.634,27.335,24.333,27.335s25.281-10.112,25.281-27.967V2159.8h11.85v80.9Z" fill="#fff"/>
    <path d="M1621.122,2241.652c-20.067,0-29.231-7.585-32.391-16.117l-2.37,15.168h-6.636V2128.994h11.692v44.715c3.318-8.216,11.85-14.852,30.021-14.852,27.967,0,35.077,18.328,35.077,40.923C1656.515,2222.691,1649.089,2241.652,1621.122,2241.652Zm-3.318-72.683c-22.753,0-26.7,12.641-26.7,30.811,0,19.435,4.74,32.075,27.177,32.075,21.647,0,26.229-12.8,26.229-32.075C1644.507,2181.294,1639.925,2168.969,1617.8,2168.969Z" fill="#fff"/>
    <path d="M1744.2,2205.152h-25.123V2240.7h-12.324V2139.58h36.025c38.079,0,41.239,19.119,41.239,33.182S1782.28,2205.152,1744.2,2205.152Zm-.79-55.459h-24.333v45.347h24.807c25.913,0,27.967-12.008,27.967-22.278C1771.851,2162.649,1769.165,2149.693,1743.41,2149.693Z" fill="#fff"/>
    <path d="M1804.4,2149.693c-5.53,0-9.006-1.58-9.006-7.268,0-6.005,3.476-7.111,9.006-7.111,5.214,0,8.69,1.106,8.69,7.111C1813.085,2148.113,1809.609,2149.693,1804.4,2149.693Zm-6,91.01v-80.9h11.692v80.9Z" fill="#fff"/>
    <path d="M1837.731,2196.3v44.4h-11.85v-80.9h5.372l3.634,13.9c3.16-8.216,11.692-15.484,30.811-15.168v10.745C1842.313,2168.179,1837.731,2178.765,1837.731,2196.3Z" fill="#fff"/>
    <path d="M1903.933,2241.652c-30.652,0-38.553-20.067-38.553-41.4,0-21.173,8.058-41.4,38.711-41.4s38.711,20.224,38.711,41.4C1942.8,2221.743,1934.744,2241.652,1903.933,2241.652Zm.158-72.683c-21.33,0-26.7,14.221-26.7,31.285s5.215,31.6,26.545,31.6c21.489,0,26.861-14.22,26.861-31.6C1930.794,2183.348,1925.58,2168.969,1904.091,2168.969Z" fill="#fff"/>
    <path d="M1989.41,2274.832c-31.759,0-40.133-11.85-40.133-30.178h12.008c0,12.324,5.057,20.54,28.125,20.54,22.121,0,26.7-6.952,26.7-13.272,0-19.435-65.572-8.058-65.572-30.179,0-5.688,4.74-9.322,12.956-11.218-8.69-4.9-11.376-13.431-11.376-21.963,0-16.59,7.11-28.757,37.921-28.757h35.235v6l-13.43,2.212c7.9,3,11.85,10.27,11.85,20.7,0,17.065-6.636,29.231-35.867,29.231-7.268,0-12.64-.474-16.432-1.9-7.427.79-8.849,3.16-8.849,5.056,0,12.324,65.888,1.58,65.888,30.337C2028.437,2262.824,2019.747,2274.832,1989.41,2274.832Zm-1.58-105.389c-18.961,0-23.543,7.427-23.543,18.961,0,11.85,3.951,20.541,23.7,20.541,18.96,0,23.385-8.533,23.385-20.541C2011.373,2177.344,2007.581,2169.443,1987.83,2169.443Z" fill="#fff"/>
    <path d="M2043.285,2241.652c-5.846,0-9.8-1.58-9.8-8.375,0-6.478,4.108-8.058,9.8-8.058,5.847,0,9.8,1.58,9.8,8.058C2053.081,2240.072,2049.132,2241.652,2043.285,2241.652Z" fill="#fff"/>
    <path d="M451.944,2619.9V2518.781h12.324V2619.9Z" fill="#fff"/>
    <path d="M582.293,2619.9l-2.528-16.433c-4.424,9.955-17.222,17.381-34.129,17.381-17.222,0-31.127-7.426-31.127-24.017,0-14.7,10.271-20.857,33.181-23.543l29.389-3.476c-.158-14.536-4.9-22.279-25.28-22.279-18.487,0-23.385,7.585-23.385,19.593H516.721c0-16.748,7.11-29.073,34.919-29.073,32.549,0,37.289,13.905,37.289,35.393V2619.9Zm-5.214-41.081-27.651,3.792c-16.59,2.37-22.594,5.846-22.594,14.062,0,9.638,8.058,14.694,21.33,14.694,16.117,0,28.915-9.164,28.915-27.019Z" fill="#fff"/>
    <path d="M704.427,2619.9v-47.56c0-14.694-3.318-24.016-18.645-24.016-15.484,0-19.592,9.006-19.592,24.016v47.56H654.181v-47.56c0-14.694-3.634-24.016-18.96-24.016s-19.593,9.006-19.593,24.016v47.56h-11.85v-80.9h5.372l3.634,12.64c2.844-7.109,10.9-13.588,25.913-13.588,13.9,0,21.172,5.846,24.175,15.8,2.37-8.532,10.27-15.8,26.387-15.8,22.278,0,27.335,15.011,27.335,34.919V2619.9Z" fill="#fff"/>
    <path d="M831.613,2619.9l-2.528-16.433c-4.424,9.955-17.222,17.381-34.129,17.381-17.222,0-31.127-7.426-31.127-24.017,0-14.7,10.27-20.857,33.181-23.543l29.389-3.476c-.158-14.536-4.9-22.279-25.281-22.279-18.486,0-23.384,7.585-23.384,19.593H766.041c0-16.748,7.11-29.073,34.919-29.073,32.549,0,37.289,13.905,37.289,35.393V2619.9Zm-5.214-41.081-27.651,3.792c-16.591,2.37-22.594,5.846-22.594,14.062,0,9.638,8.058,14.694,21.33,14.694,16.116,0,28.915-9.164,28.915-27.019Z" fill="#fff"/>
    <path d="M914.245,2619.9V2575.82c0-17.38-3.318-27.651-24.016-27.651s-25.281,9.955-25.281,27.651V2619.9H853.1v-80.9h5.53L862.1,2553.7c3.16-8.374,11.85-15.643,31.285-15.643,27.493,0,32.707,15.327,32.707,38.711V2619.9Z" fill="#fff"/>
    <path d="M1041.276,2619.9l-2.528-16.433c-4.424,9.955-17.222,17.381-34.129,17.381-17.222,0-31.127-7.426-31.127-24.017,0-14.7,10.27-20.857,33.181-23.543l29.389-3.476c-.158-14.536-4.9-22.279-25.281-22.279-18.486,0-23.384,7.585-23.384,19.593H975.7c0-16.748,7.11-29.073,34.919-29.073,32.549,0,37.289,13.905,37.289,35.393V2619.9Zm-5.214-41.081-27.651,3.792c-16.59,2.37-22.594,5.846-22.594,14.062,0,9.638,8.058,14.694,21.33,14.694,16.116,0,28.915-9.164,28.915-27.019Z" fill="#fff"/>
    <path d="M1098.312,2620.852c-31.759,0-39.5-19.909-39.5-41.4s7.9-41.4,39.027-41.4c24.807,0,36.025,12.8,36.025,32.865h-12.008c-.79-14.536-7.427-22.753-24.175-22.753-21.331,0-27.019,13.747-27.019,31.127s5.53,31.6,27.177,31.6c16.906,0,23.384-8.374,24.017-22.594h12.008C1133.863,2608.527,1122.961,2620.852,1098.312,2620.852Z" fill="#fff"/>
    <path d="M1182.208,2620.852c-31.759,0-39.5-19.909-39.5-41.4s7.9-41.4,39.028-41.4c24.806,0,36.025,12.8,36.025,32.865h-12.009c-.79-14.536-7.426-22.753-24.175-22.753-21.33,0-27.019,13.747-27.019,31.127s5.531,31.6,27.178,31.6c16.906,0,23.384-8.374,24.016-22.594h12.009C1217.76,2608.527,1206.857,2620.852,1182.208,2620.852Z" fill="#fff"/>
    <path d="M1265.156,2620.852c-30.652,0-38.553-20.067-38.553-41.4,0-21.172,8.058-41.4,38.711-41.4s38.712,20.225,38.712,41.4C1304.026,2600.943,1295.967,2620.852,1265.156,2620.852Zm.158-72.683c-21.33,0-26.7,14.221-26.7,31.285s5.214,31.6,26.544,31.6c21.489,0,26.861-14.221,26.861-31.6C1292.017,2562.548,1286.8,2548.169,1265.314,2548.169Z" fill="#fff"/>
    <path d="M1416.521,2619.9v-47.56c0-14.694-3.318-24.016-18.644-24.016-15.485,0-19.593,9.006-19.593,24.016v47.56h-12.008v-47.56c0-14.694-3.635-24.016-18.961-24.016s-19.593,9.006-19.593,24.016v47.56h-11.85v-80.9h5.372l3.635,12.64c2.843-7.109,10.9-13.588,25.912-13.588,13.9,0,21.173,5.846,24.175,15.8,2.37-8.532,10.27-15.8,26.387-15.8,22.279,0,27.335,15.011,27.335,34.919V2619.9Z" fill="#fff"/>
    <path d="M1485.09,2620.852c-18.17,0-26.7-6.953-30.02-15.011v45.664h-11.693v-112.5h6.636s.79,4.74,2.371,14.695c3.159-8.374,12.324-15.643,32.39-15.643,27.967,0,35.393,18.645,35.393,41.556C1520.167,2602.365,1513.057,2620.852,1485.09,2620.852Zm-3.16-73.156c-22.437,0-27.177,12.8-27.177,31.917,0,18.17,3.95,31.127,26.7,31.127,22.121,0,26.7-12.641,26.7-31.127C1508.159,2560.652,1503.577,2547.7,1481.93,2547.7Z" fill="#fff"/>
    <path d="M1533.119,2619.9v-111.71h11.692V2619.9Z" fill="#fff"/>
    <path d="M1566.615,2528.893c-5.531,0-9.007-1.58-9.007-7.268,0-6.005,3.476-7.11,9.007-7.11,5.213,0,8.69,1.105,8.69,7.11C1575.305,2527.313,1571.828,2528.893,1566.615,2528.893Zm-6.005,91.011v-80.9H1572.3v80.9Z" fill="#fff"/>
    <path d="M1622.229,2620.852c-26.7,0-38.711-10.587-38.237-31.127h11.535c-.159,13.746,7.742,21.488,26.544,21.488,17.223,0,22.911-6.636,23.069-12.8.79-21.015-59.252-8.374-59.568-36.973-.316-13.746,9.8-23.385,34.445-23.385,25.6,0,34.761,12.167,34.761,29.863h-11.06c-.316-12.64-6.478-20.383-24.017-20.383-17.065,0-22.594,5.847-22.278,13.273.316,18.486,59.409,7.584,59.409,36.973C1656.832,2609.317,1647.194,2620.852,1622.229,2620.852Z" fill="#fff"/>
    <path d="M1729.668,2619.9v-44.557c0-18.329-3.318-27.019-23.859-27.019s-25.123,8.216-25.123,27.019l-.157,44.557h-11.693v-111.71h11.693v44.241c3.16-8.532,11.06-14.378,28.44-14.378,27.177,0,32.549,14.378,32.549,38.237v43.61Z" fill="#fff"/>
    <path d="M1792.865,2620.852c-33.023,0-40.449-20.067-40.449-41.872,0-20.856,8.216-40.923,40.291-40.923,28.283,0,36.657,17.855,36.657,40.292,0,2.211,0,3.791-.158,6H1764.9c.79,15.959,8.058,27.178,27.651,27.178,16.906,0,23.068-8.375,24.491-16.907h12.324C1828.1,2608.527,1818.778,2620.852,1792.865,2620.852Zm-1.106-73.315c-20.541,0-26.387,12.8-26.861,27.335h52.142C1817.04,2559.388,1810.088,2547.537,1791.759,2547.537Z" fill="#fff"/>
    <path d="M1907.413,2619.9s-.79-5.056-2.369-15.169c-3.16,8.532-12.325,16.117-32.391,16.117-27.967,0-35.393-18.645-35.393-41.556,0-22.594,7.11-41.239,35.077-41.239,18.17,0,26.7,6.479,30.02,14.7v-44.558h11.851V2619.9Zm-31.443-71.735c-22.12,0-26.7,12.641-26.7,31.127,0,18.961,4.74,31.6,26.229,31.6,22.436,0,27.177-12.324,27.177-31.6C1902.674,2561.442,1898.723,2548.169,1875.97,2548.169Z" fill="#fff"/>
    <path d="M2007.107,2620.852c-18.17,0-26.7-6.953-30.02-15.011v45.664h-11.693v-112.5h6.637s.79,4.74,2.37,14.695c3.159-8.374,12.324-15.643,32.39-15.643,27.967,0,35.393,18.645,35.393,41.556C2042.184,2602.365,2035.074,2620.852,2007.107,2620.852Zm-3.159-73.156c-22.437,0-27.178,12.8-27.178,31.917,0,18.17,3.95,31.127,26.7,31.127,22.121,0,26.7-12.641,26.7-31.127C2030.176,2560.652,2025.594,2547.7,2003.948,2547.7Z" fill="#fff"/>
    <path d="M2115.81,2619.9v-44.557c0-18.329-3.318-27.019-23.859-27.019s-25.123,8.216-25.123,27.019l-.157,44.557h-11.693v-111.71h11.693v44.241c3.159-8.532,11.06-14.378,28.441-14.378,27.176,0,32.548,14.378,32.548,38.237v43.61Z" fill="#fff"/>
    <path d="M2177.111,2620.852c-30.653,0-38.553-20.067-38.553-41.4,0-21.172,8.058-41.4,38.711-41.4s38.711,20.225,38.711,41.4C2215.98,2600.943,2207.922,2620.852,2177.111,2620.852Zm.158-72.683c-21.331,0-26.7,14.221-26.7,31.285s5.215,31.6,26.545,31.6c21.488,0,26.861-14.221,26.861-31.6C2203.972,2562.548,2198.758,2548.169,2177.269,2548.169Z" fill="#fff"/>
    <path d="M2242.208,2548.8v47.4c0,9.954,4.108,14.537,19.593,14.537,1.738,0,3.476,0,5.53-.159v9.8c-2.529.158-4.9.316-7.111.316-21.014,0-30.02-6.952-30.02-24.491v-47.4h-11.061v-7.427l11.061-2.686v-19.908h11.534v20.224h25.6v9.8Z" fill="#fff"/>
    <path d="M2307.463,2620.852c-30.653,0-38.553-20.067-38.553-41.4,0-21.172,8.059-41.4,38.711-41.4s38.711,20.225,38.711,41.4C2346.332,2600.943,2338.274,2620.852,2307.463,2620.852Zm.158-72.683c-21.33,0-26.7,14.221-26.7,31.285s5.215,31.6,26.545,31.6c21.489,0,26.861-14.221,26.861-31.6C2334.324,2562.548,2329.11,2548.169,2307.621,2548.169Z" fill="#fff"/>
    <path d="M2392.94,2654.033c-31.759,0-40.133-11.851-40.133-30.179h12.008c0,12.324,5.057,20.54,28.125,20.54,22.121,0,26.7-6.952,26.7-13.272,0-19.435-65.572-8.058-65.572-30.179,0-5.688,4.74-9.322,12.956-11.218-8.689-4.9-11.376-13.431-11.376-21.963,0-16.59,7.11-28.757,37.921-28.757h35.235v6.005l-13.43,2.212c7.9,3,11.85,10.27,11.85,20.7,0,17.065-6.635,29.231-35.867,29.231-7.267,0-12.641-.474-16.433-1.9-7.425.79-8.847,3.16-8.847,5.056,0,12.325,65.888,1.58,65.888,30.337C2431.968,2642.024,2423.277,2654.033,2392.94,2654.033Zm-1.58-105.39c-18.96,0-23.543,7.427-23.543,18.961,0,11.85,3.95,20.541,23.7,20.541,18.961,0,23.385-8.532,23.385-20.541C2414.9,2556.544,2411.111,2548.643,2391.36,2548.643Z" fill="#fff"/>
    <path d="M2452.82,2575.5v44.4h-11.851v-80.9h5.373l3.633,13.9c3.161-8.217,11.693-15.485,30.812-15.169v10.745C2457.4,2547.379,2452.82,2557.966,2452.82,2575.5Z" fill="#fff"/>
    <path d="M2549.2,2619.9l-2.528-16.433c-4.424,9.955-17.223,17.381-34.129,17.381-17.223,0-31.127-7.426-31.127-24.017,0-14.7,10.269-20.857,33.18-23.543l29.389-3.476c-.158-14.536-4.9-22.279-25.28-22.279-18.487,0-23.385,7.585-23.385,19.593h-11.692c0-16.748,7.11-29.073,34.919-29.073,32.548,0,37.289,13.905,37.289,35.393V2619.9Zm-5.215-41.081-27.65,3.792c-16.591,2.37-22.595,5.846-22.595,14.062,0,9.638,8.059,14.694,21.33,14.694,16.117,0,28.915-9.164,28.915-27.019Z" fill="#fff"/>
    <path d="M2612.4,2620.852c-18.17,0-26.7-6.953-30.02-15.011v45.664h-11.693v-112.5h6.636s.79,4.74,2.37,14.695c3.16-8.374,12.324-15.643,32.392-15.643,27.967,0,35.392,18.645,35.392,41.556C2647.475,2602.365,2640.365,2620.852,2612.4,2620.852Zm-3.16-73.156c-22.436,0-27.177,12.8-27.177,31.917,0,18.17,3.95,31.127,26.7,31.127,22.121,0,26.7-12.641,26.7-31.127C2635.468,2560.652,2630.885,2547.7,2609.238,2547.7Z" fill="#fff"/>
    <path d="M2721.1,2619.9v-44.557c0-18.329-3.318-27.019-23.859-27.019s-25.122,8.216-25.122,27.019l-.158,44.557h-11.693v-111.71h11.693v44.241c3.16-8.532,11.06-14.378,28.44-14.378,27.177,0,32.549,14.378,32.549,38.237v43.61Z" fill="#fff"/>
    <path d="M2784.3,2620.852c-33.024,0-40.45-20.067-40.45-41.872,0-20.856,8.216-40.923,40.291-40.923,28.284,0,36.658,17.855,36.658,40.292,0,2.211,0,3.791-.159,6h-64.307c.79,15.959,8.058,27.178,27.65,27.178,16.907,0,23.07-8.375,24.491-16.907H2820.8C2819.533,2608.527,2810.211,2620.852,2784.3,2620.852Zm-1.107-73.315c-20.54,0-26.387,12.8-26.86,27.335h52.141C2808.472,2559.388,2801.52,2547.537,2783.191,2547.537Z" fill="#fff"/>
    <path d="M2844.493,2575.5v44.4h-11.851v-80.9h5.372l3.634,13.9c3.16-8.217,11.693-15.485,30.812-15.169v10.745C2849.075,2547.379,2844.493,2557.966,2844.493,2575.5Z" fill="#fff"/>
    <path d="M2882.413,2617.376l-4.425,23.384H2870.4l2.528-19.908c-5.688,0-9.48-1.738-9.48-8.375,0-6.478,4.108-8.058,9.8-8.058C2882.728,2604.419,2883.993,2608.843,2882.413,2617.376Z" fill="#fff"/>
    <path d="M489.707,2809.5H477.224l-35.077-80.9H455.42l28.125,70.312,29.547-70.312H526.68Z" fill="#fff"/>
    <path d="M540.738,2718.493c-5.53,0-9.006-1.58-9.006-7.268,0-6,3.476-7.11,9.006-7.11,5.214,0,8.69,1.106,8.69,7.11C549.428,2716.913,545.952,2718.493,540.738,2718.493Zm-6,91.011v-80.9h11.692v80.9Z" fill="#fff"/>
    <path d="M628.427,2809.5s-.789-5.056-2.369-15.169c-3.16,8.533-12.325,16.117-32.391,16.117-27.967,0-35.393-18.645-35.393-41.556,0-22.594,7.11-41.239,35.077-41.239,18.17,0,26.7,6.479,30.02,14.695v-44.558h11.851V2809.5Zm-31.442-71.735c-22.121,0-26.7,12.641-26.7,31.127,0,18.961,4.74,31.6,26.229,31.6,22.437,0,27.177-12.324,27.177-31.6C623.688,2751.042,619.738,2737.769,596.985,2737.769Z" fill="#fff"/>
    <path d="M687.359,2810.452c-33.023,0-40.449-20.067-40.449-41.872,0-20.856,8.216-40.923,40.291-40.923,28.283,0,36.657,17.855,36.657,40.292,0,2.212,0,3.792-.158,6H659.392c.79,15.958,8.058,27.177,27.651,27.177,16.906,0,23.069-8.375,24.491-16.907h12.324C722.594,2798.127,713.272,2810.452,687.359,2810.452Zm-1.106-73.314c-20.541,0-26.387,12.8-26.861,27.335h52.142C711.534,2748.988,704.582,2737.138,686.253,2737.138Z" fill="#fff"/>
    <path d="M770.307,2810.452c-30.652,0-38.553-20.067-38.553-41.4,0-21.173,8.058-41.4,38.711-41.4s38.712,20.225,38.712,41.4C809.177,2790.543,801.118,2810.452,770.307,2810.452Zm.158-72.683c-21.33,0-26.7,14.221-26.7,31.286s5.215,31.6,26.545,31.6c21.489,0,26.861-14.221,26.861-31.6C797.168,2752.148,791.954,2737.769,770.465,2737.769Z" fill="#fff"/>
    <path d="M855.784,2843.633c-31.759,0-40.133-11.85-40.133-30.179h12.008c0,12.324,5.057,20.541,28.125,20.541,22.121,0,26.7-6.953,26.7-13.273,0-19.435-65.572-8.058-65.572-30.179,0-5.688,4.74-9.322,12.956-11.218-8.69-4.9-11.376-13.431-11.376-21.963,0-16.59,7.11-28.757,37.921-28.757h35.235v6.005l-13.43,2.212c7.9,3,11.85,10.27,11.85,20.7,0,17.065-6.636,29.231-35.867,29.231-7.268,0-12.64-.474-16.432-1.9-7.427.79-8.849,3.16-8.849,5.056,0,12.325,65.888,1.58,65.888,30.337C894.811,2831.624,886.121,2843.633,855.784,2843.633Zm-1.58-105.389c-18.961,0-23.543,7.426-23.543,18.96,0,11.851,3.951,20.541,23.7,20.541,18.961,0,23.385-8.532,23.385-20.541C877.747,2746.144,873.955,2738.244,854.2,2738.244Z" fill="#fff"/>
    <path d="M915.663,2765.1v44.4h-11.85v-80.9h5.372l3.635,13.905c3.159-8.217,11.691-15.485,30.81-15.169v10.745C920.245,2736.979,915.663,2747.566,915.663,2765.1Z" fill="#fff"/>
    <path d="M1012.044,2809.5l-2.528-16.433c-4.424,9.955-17.222,17.381-34.129,17.381-17.222,0-31.127-7.426-31.127-24.017,0-14.694,10.271-20.857,33.181-23.543l29.389-3.476c-.158-14.536-4.9-22.278-25.28-22.278-18.487,0-23.385,7.584-23.385,19.592H946.472c0-16.748,7.11-29.073,34.919-29.073,32.549,0,37.289,13.9,37.289,35.393V2809.5Zm-5.214-41.081-27.651,3.792c-16.59,2.37-22.594,5.846-22.594,14.062,0,9.638,8.058,14.7,21.33,14.7,16.116,0,28.915-9.165,28.915-27.019Z" fill="#fff"/>
    <path d="M1075.242,2810.452c-18.17,0-26.7-6.953-30.021-15.011v45.664h-11.692v-112.5h6.636s.79,4.741,2.37,14.7c3.16-8.374,12.325-15.643,32.391-15.643,27.967,0,35.393,18.645,35.393,41.556C1110.319,2791.965,1103.209,2810.452,1075.242,2810.452Zm-3.16-73.156c-22.437,0-27.177,12.8-27.177,31.917,0,18.17,3.95,31.127,26.7,31.127,22.121,0,26.7-12.641,26.7-31.127C1098.311,2750.252,1093.729,2737.3,1072.082,2737.3Z" fill="#fff"/>
    <path d="M1183.945,2809.5v-44.557c0-18.329-3.318-27.019-23.859-27.019s-25.123,8.216-25.123,27.019l-.158,44.557h-11.692v-111.71h11.692v44.242c3.16-8.533,11.06-14.379,28.441-14.379,27.177,0,32.549,14.379,32.549,38.237v43.61Z" fill="#fff"/>
    <path d="M1247.142,2810.452c-33.023,0-40.449-20.067-40.449-41.872,0-20.856,8.216-40.923,40.291-40.923,28.283,0,36.657,17.855,36.657,40.292,0,2.212,0,3.792-.158,6h-64.308c.79,15.958,8.058,27.177,27.651,27.177,16.906,0,23.068-8.375,24.491-16.907h12.324C1282.377,2798.127,1273.054,2810.452,1247.142,2810.452Zm-1.106-73.314c-20.541,0-26.387,12.8-26.861,27.335h52.142C1271.317,2748.988,1264.365,2737.138,1246.036,2737.138Z" fill="#fff"/>
    <path d="M1307.337,2765.1v44.4h-11.85v-80.9h5.372l3.634,13.905c3.16-8.217,11.692-15.485,30.811-15.169v10.745C1311.919,2736.979,1307.337,2747.566,1307.337,2765.1Z" fill="#fff"/>
    <path d="M1345.258,2806.975l-4.425,23.385h-7.584l2.528-19.908c-5.688,0-9.48-1.738-9.48-8.374,0-6.479,4.108-8.059,9.8-8.059C1345.573,2794.019,1346.838,2798.443,1345.258,2806.975Z" fill="#fff"/>
    <path d="M1457.753,2809.5l-2.528-16.433c-4.424,9.955-17.223,17.381-34.13,17.381-17.222,0-31.126-7.426-31.126-24.017,0-14.694,10.27-20.857,33.181-23.543l29.389-3.476c-.158-14.536-4.9-22.278-25.281-22.278-18.487,0-23.385,7.584-23.385,19.592h-11.692c0-16.748,7.11-29.073,34.919-29.073,32.549,0,37.289,13.9,37.289,35.393V2809.5Zm-5.214-41.081-27.651,3.792c-16.591,2.37-22.6,5.846-22.6,14.062,0,9.638,8.058,14.7,21.331,14.7,16.116,0,28.915-9.165,28.915-27.019Z" fill="#fff"/>
    <path d="M1540.385,2809.5V2765.42c0-17.38-3.318-27.651-24.017-27.651s-25.28,9.955-25.28,27.651V2809.5h-11.85v-80.9h5.529l3.477,14.7c3.16-8.374,11.85-15.643,31.285-15.643,27.492,0,32.707,15.327,32.707,38.712V2809.5Z" fill="#fff"/>
    <path d="M1633.289,2809.5s-.79-5.056-2.369-15.169c-3.16,8.533-12.325,16.117-32.391,16.117-27.967,0-35.393-18.645-35.393-41.556,0-22.594,7.11-41.239,35.077-41.239,18.17,0,26.7,6.479,30.02,14.695v-44.558h11.851V2809.5Zm-31.443-71.735c-22.12,0-26.7,12.641-26.7,31.127,0,18.961,4.74,31.6,26.229,31.6,22.436,0,27.177-12.324,27.177-31.6C1628.55,2751.042,1624.6,2737.769,1601.846,2737.769Z" fill="#fff"/>
    <path d="M1726.031,2843.633c-31.759,0-40.133-11.85-40.133-30.179h12.008c0,12.324,5.057,20.541,28.125,20.541,22.121,0,26.7-6.953,26.7-13.273,0-19.435-65.572-8.058-65.572-30.179,0-5.688,4.74-9.322,12.956-11.218-8.69-4.9-11.376-13.431-11.376-21.963,0-16.59,7.11-28.757,37.921-28.757H1761.9v6.005l-13.43,2.212c7.9,3,11.85,10.27,11.85,20.7,0,17.065-6.636,29.231-35.867,29.231-7.268,0-12.64-.474-16.432-1.9-7.426.79-8.849,3.16-8.849,5.056,0,12.325,65.888,1.58,65.888,30.337C1765.058,2831.624,1756.368,2843.633,1726.031,2843.633Zm-1.58-105.389c-18.961,0-23.543,7.426-23.543,18.96,0,11.851,3.951,20.541,23.7,20.541,18.961,0,23.385-8.532,23.385-20.541C1747.994,2746.144,1744.2,2738.244,1724.451,2738.244Z" fill="#fff"/>
    <path d="M1785.91,2765.1v44.4h-11.85v-80.9h5.372l3.635,13.905c3.159-8.217,11.692-15.485,30.81-15.169v10.745C1790.492,2736.979,1785.91,2747.566,1785.91,2765.1Z" fill="#fff"/>
    <path d="M1882.291,2809.5l-2.528-16.433c-4.424,9.955-17.222,17.381-34.129,17.381-17.222,0-31.127-7.426-31.127-24.017,0-14.694,10.271-20.857,33.181-23.543l29.389-3.476c-.158-14.536-4.9-22.278-25.28-22.278-18.487,0-23.385,7.584-23.385,19.592h-11.693c0-16.748,7.11-29.073,34.919-29.073,32.549,0,37.289,13.9,37.289,35.393V2809.5Zm-5.214-41.081-27.65,3.792c-16.591,2.37-22.595,5.846-22.595,14.062,0,9.638,8.058,14.7,21.33,14.7,16.117,0,28.915-9.165,28.915-27.019Z" fill="#fff"/>
    <path d="M1945.489,2810.452c-18.17,0-26.7-6.953-30.02-15.011v45.664h-11.693v-112.5h6.636s.79,4.741,2.37,14.7c3.16-8.374,12.325-15.643,32.391-15.643,27.967,0,35.393,18.645,35.393,41.556C1980.566,2791.965,1973.456,2810.452,1945.489,2810.452Zm-3.16-73.156c-22.437,0-27.177,12.8-27.177,31.917,0,18.17,3.95,31.127,26.7,31.127,22.121,0,26.7-12.641,26.7-31.127C1968.558,2750.252,1963.976,2737.3,1942.329,2737.3Z" fill="#fff"/>
    <path d="M2054.192,2809.5v-44.557c0-18.329-3.318-27.019-23.859-27.019s-25.123,8.216-25.123,27.019l-.158,44.557H1993.36v-111.71h11.692v44.242c3.16-8.533,11.061-14.379,28.441-14.379,27.177,0,32.549,14.379,32.549,38.237v43.61Z" fill="#fff"/>
    <path d="M2087.052,2718.493c-5.53,0-9.006-1.58-9.006-7.268,0-6,3.476-7.11,9.006-7.11,5.214,0,8.69,1.106,8.69,7.11C2095.742,2716.913,2092.266,2718.493,2087.052,2718.493Zm-6,91.011v-80.9h11.692v80.9Z" fill="#fff"/>
    <path d="M2144.089,2810.452c-31.759,0-39.5-19.909-39.5-41.4s7.9-41.4,39.027-41.4c24.807,0,36.025,12.8,36.025,32.865h-12.008c-.79-14.536-7.427-22.753-24.175-22.753-21.331,0-27.019,13.747-27.019,31.127s5.53,31.6,27.177,31.6c16.906,0,23.384-8.374,24.017-22.594h12.008C2179.64,2798.127,2168.738,2810.452,2144.089,2810.452Z" fill="#fff"/>
    <path d="M2295.136,2809.5l-2.371-15.169c-3.16,8.533-12.324,16.117-32.391,16.117-27.967,0-35.393-18.645-35.393-41.556,0-22.594,7.111-41.239,35.077-41.239,18.17,0,26.7,6.479,30.021,14.695v-44.558h11.85V2809.5Zm-31.444-71.735c-22.12,0-26.7,12.641-26.7,31.127,0,18.961,4.74,31.6,26.23,31.6,22.436,0,27.176-12.324,27.176-31.6C2290.4,2751.042,2286.445,2737.769,2263.692,2737.769Z" fill="#fff"/>
    <path d="M2354.067,2810.452c-33.023,0-40.449-20.067-40.449-41.872,0-20.856,8.216-40.923,40.291-40.923,28.283,0,36.657,17.855,36.657,40.292,0,2.212,0,3.792-.158,6H2326.1c.79,15.958,8.059,27.177,27.651,27.177,16.907,0,23.069-8.375,24.491-16.907h12.324C2389.3,2798.127,2379.98,2810.452,2354.067,2810.452Zm-1.106-73.314c-20.54,0-26.387,12.8-26.861,27.335h52.142C2378.242,2748.988,2371.29,2737.138,2352.961,2737.138Z" fill="#fff"/>
    <path d="M2436.541,2810.452c-26.7,0-38.711-10.586-38.238-31.127h11.535c-.158,13.746,7.742,21.488,26.545,21.488,17.222,0,22.911-6.636,23.069-12.8.789-21.015-59.252-8.374-59.568-36.973-.317-13.746,9.8-23.385,34.445-23.385,25.6,0,34.761,12.167,34.761,29.863h-11.061c-.315-12.64-6.477-20.382-24.017-20.382-17.064,0-22.594,5.846-22.278,13.272.316,18.486,59.409,7.584,59.409,36.973C2471.143,2798.917,2461.506,2810.452,2436.541,2810.452Z" fill="#fff"/>
    <path d="M2489.309,2718.493c-5.53,0-9.006-1.58-9.006-7.268,0-6,3.476-7.11,9.006-7.11,5.214,0,8.691,1.106,8.691,7.11C2498,2716.913,2494.523,2718.493,2489.309,2718.493Zm-6,91.011v-80.9H2495v80.9Z" fill="#fff"/>
    <path d="M2545.556,2843.633c-31.758,0-40.132-11.85-40.132-30.179h12.007c0,12.324,5.057,20.541,28.125,20.541,22.121,0,26.7-6.953,26.7-13.273,0-19.435-65.573-8.058-65.573-30.179,0-5.688,4.74-9.322,12.956-11.218-8.689-4.9-11.376-13.431-11.376-21.963,0-16.59,7.111-28.757,37.921-28.757h35.236v6.005l-13.431,2.212c7.9,3,11.851,10.27,11.851,20.7,0,17.065-6.636,29.231-35.868,29.231-7.267,0-12.64-.474-16.432-1.9-7.426.79-8.848,3.16-8.848,5.056,0,12.325,65.888,1.58,65.888,30.337C2584.584,2831.624,2575.893,2843.633,2545.556,2843.633Zm-1.58-105.389c-18.96,0-23.543,7.426-23.543,18.96,0,11.851,3.951,20.541,23.7,20.541,18.96,0,23.384-8.532,23.384-20.541C2567.519,2746.144,2563.727,2738.244,2543.976,2738.244Z" fill="#fff"/>
    <path d="M2654.733,2809.5V2765.42c0-17.38-3.318-27.651-24.016-27.651s-25.281,9.955-25.281,27.651V2809.5h-11.85v-80.9h5.53l3.476,14.7c3.16-8.374,11.85-15.643,31.285-15.643,27.493,0,32.707,15.327,32.707,38.712V2809.5Z" fill="#fff"/>
    <path d="M2717.932,2810.452c-33.023,0-40.449-20.067-40.449-41.872,0-20.856,8.216-40.923,40.291-40.923,28.283,0,36.657,17.855,36.657,40.292,0,2.212,0,3.792-.158,6h-64.307c.79,15.958,8.058,27.177,27.65,27.177,16.907,0,23.069-8.375,24.491-16.907h12.324C2753.168,2798.127,2743.845,2810.452,2717.932,2810.452Zm-1.106-73.314c-20.54,0-26.387,12.8-26.86,27.335h52.141C2742.107,2748.988,2735.155,2737.138,2716.826,2737.138Z" fill="#fff"/>
    <path d="M2778.128,2765.1v44.4h-11.851v-80.9h5.372l3.634,13.905c3.16-8.217,11.692-15.485,30.811-15.169v10.745C2782.71,2736.979,2778.128,2747.566,2778.128,2765.1Z" fill="#fff"/>
    <path d="M2939.287,2809.5H2925.7l-22.438-67.468-21.8,67.468H2868.5l-25.439-80.9h13.115l19.276,67.626,22.121-67.626h11.692l22.752,68.1,20.541-68.1h12.8Z" fill="#fff"/>
    <path d="M2980.364,2718.493c-5.53,0-9.006-1.58-9.006-7.268,0-6,3.476-7.11,9.006-7.11,5.214,0,8.69,1.106,8.69,7.11C2989.054,2716.913,2985.578,2718.493,2980.364,2718.493Zm-6,91.011v-80.9h11.692v80.9Z" fill="#fff"/>
    <path d="M3020.02,2738.4v47.4c0,9.954,4.109,14.537,19.593,14.537,1.738,0,3.477,0,5.53-.158v9.8c-2.528.158-4.9.316-7.11.316-21.015,0-30.021-6.952-30.021-24.491v-47.4h-11.06v-7.427l11.06-2.686v-19.908h11.535v20.224h25.6v9.8Z" fill="#fff"/>
    <path d="M3116.718,2809.5v-44.557c0-18.329-3.319-27.019-23.86-27.019s-25.122,8.216-25.122,27.019l-.158,44.557h-11.692v-111.71h11.692v44.242c3.16-8.533,11.06-14.379,28.44-14.379,27.177,0,32.549,14.379,32.549,38.237v43.61Z" fill="#fff"/>
    <path d="M3243.746,2809.5l-2.528-16.433c-4.424,9.955-17.223,17.381-34.129,17.381-17.223,0-31.127-7.426-31.127-24.017,0-14.694,10.269-20.857,33.18-23.543l29.389-3.476c-.158-14.536-4.9-22.278-25.28-22.278-18.487,0-23.385,7.584-23.385,19.592h-11.692c0-16.748,7.11-29.073,34.919-29.073,32.548,0,37.289,13.9,37.289,35.393V2809.5Zm-5.215-41.081-27.65,3.792c-16.591,2.37-22.595,5.846-22.595,14.062,0,9.638,8.058,14.7,21.33,14.7,16.117,0,28.915-9.165,28.915-27.019Z" fill="#fff"/>
    <path d="M3343.6,2809.5h-40.923V2708.381h40.765c25.439,0,35.393,10.744,35.393,25.755,0,9.006-3,19.75-14.536,22.278,12.324,3,17.7,14.221,17.7,24.491C3381.993,2796.231,3374.094,2809.5,3343.6,2809.5Zm.159-91.011H3315v34.6h31.127c17.854,0,20.54-9.006,20.54-16.59C3366.667,2725.919,3362.243,2718.493,3343.757,2718.493Zm3.16,44.241H3315v36.657h29.072c21.8,0,25.439-8.216,25.439-18.486C3369.511,2771.583,3365.561,2762.734,3346.917,2762.734Z" fill="#fff"/>
    <path d="M3408.85,2718.493v34.287h51.194v10.112H3408.85V2809.5h-12.325V2708.381h66.994v10.112Z" fill="#fff"/>
    <path d="M3541.889,2809.5l-8.533-21.489H3477.9l-8.69,21.489h-13.114l41.554-101.123h16.275l40.765,101.123Zm-36.183-91.8-24.333,60.832h48.508Z" fill="#fff"/>
    <path d="M456.21,2908.093c-5.531,0-9.007-1.58-9.007-7.268,0-6,3.476-7.111,9.007-7.111,5.214,0,8.69,1.106,8.69,7.111C464.9,2906.513,461.424,2908.093,456.21,2908.093Zm-6,91.01v-80.9H461.9v80.9Z" fill="#fff"/>
    <path d="M538.843,2999.1V2955.02c0-17.38-3.318-27.651-24.017-27.651s-25.28,9.955-25.28,27.651V2999.1H477.7v-80.9h5.529L486.7,2932.9c3.16-8.374,11.85-15.642,31.285-15.642,27.492,0,32.707,15.326,32.707,38.711V2999.1Z" fill="#fff"/>
    <path d="M641.225,2897.98c29.547,0,44.716,17.381,44.716,49.93,0,32.232-16.275,51.193-46.612,51.193H602.988V2897.98Zm-2.844,10.113H615.312v80.9h22.121c24.016,0,36.657-12.324,36.657-41.081C674.09,2919,662.24,2908.093,638.381,2908.093Z" fill="#fff"/>
    <path d="M706.793,2908.093c-5.531,0-9.007-1.58-9.007-7.268,0-6,3.476-7.111,9.007-7.111,5.214,0,8.69,1.106,8.69,7.111C715.483,2906.513,712.007,2908.093,706.793,2908.093Zm-6,91.01v-80.9h11.693v80.9Z" fill="#fff"/>
    <path d="M763.039,3033.232c-31.758,0-40.133-11.85-40.133-30.178h12.009c0,12.324,5.056,20.541,28.124,20.541,22.121,0,26.7-6.954,26.7-13.273,0-19.434-65.572-8.058-65.572-30.18,0-5.687,4.74-9.322,12.957-11.217-8.691-4.9-11.377-13.431-11.377-21.963,0-16.591,7.111-28.757,37.922-28.757h35.234v6l-13.43,2.212c7.9,3,11.85,10.27,11.85,20.7,0,17.064-6.636,29.23-35.867,29.23-7.268,0-12.64-.473-16.432-1.895-7.426.79-8.849,3.16-8.849,5.056,0,12.324,65.889,1.58,65.889,30.337C802.067,3021.224,793.376,3033.232,763.039,3033.232Zm-1.58-105.389c-18.96,0-23.542,7.426-23.542,18.961,0,11.85,3.95,20.541,23.7,20.541,18.961,0,23.385-8.533,23.385-20.541C785,2935.744,781.21,2927.843,761.459,2927.843Z" fill="#fff"/>
    <path d="M817.231,2908.093c-5.531,0-9.007-1.58-9.007-7.268,0-6,3.476-7.111,9.007-7.111,5.214,0,8.69,1.106,8.69,7.111C825.921,2906.513,822.445,2908.093,817.231,2908.093Zm-6,91.01v-80.9h11.693v80.9Z" fill="#fff"/>
    <path d="M856.887,2928v47.4c0,9.955,4.108,14.537,19.593,14.537,1.738,0,3.476,0,5.53-.158v9.8c-2.528.158-4.9.316-7.11.316-21.015,0-30.021-6.952-30.021-24.491V2928H833.818v-7.426l11.061-2.686V2897.98h11.534v20.225h25.6v9.8Z" fill="#fff"/>
    <path d="M952.321,2999.1l-2.528-16.432c-4.424,9.954-17.222,17.381-34.129,17.381-17.222,0-31.127-7.427-31.127-24.017,0-14.694,10.27-20.857,33.181-23.543l29.389-3.476c-.158-14.537-4.9-22.279-25.281-22.279-18.486,0-23.384,7.585-23.384,19.593H886.749c0-16.749,7.11-29.073,34.919-29.073,32.549,0,37.289,13.9,37.289,35.393V2999.1Zm-5.214-41.081-27.651,3.792c-16.591,2.37-22.594,5.846-22.594,14.063,0,9.638,8.058,14.694,21.33,14.694,16.116,0,28.915-9.164,28.915-27.018Z" fill="#fff"/>
    <path d="M973.964,2999.1V2887.394h11.692V2999.1Z" fill="#fff"/>
    <path d="M1142.076,2999.1v-85.954l-39.343,85.954h-12.166l-39.5-85.954V2999.1h-12.325V2897.98h18.487l39.5,87.851,39.027-87.851h18.8V2999.1Z" fill="#fff"/>
    <path d="M1208.75,3000.052c-33.023,0-40.449-20.067-40.449-41.871,0-20.857,8.216-40.924,40.291-40.924,28.283,0,36.657,17.855,36.657,40.291,0,2.213,0,3.793-.158,6.005h-64.308c.79,15.958,8.058,27.176,27.651,27.176,16.906,0,23.068-8.374,24.491-16.907h12.324C1243.985,2987.727,1234.662,3000.052,1208.75,3000.052Zm-1.106-73.315c-20.541,0-26.387,12.8-26.861,27.335h52.142C1232.925,2938.588,1225.972,2926.737,1207.644,2926.737Z" fill="#fff"/>
    <path d="M1323.3,2999.1l-2.37-15.168c-3.16,8.533-12.324,16.117-32.391,16.117-27.966,0-35.393-18.645-35.393-41.556,0-22.6,7.111-41.239,35.077-41.239,18.171,0,26.7,6.478,30.021,14.7v-44.558h11.851V2999.1Zm-31.443-71.734c-22.12,0-26.7,12.641-26.7,31.127,0,18.961,4.74,31.6,26.229,31.6,22.436,0,27.176-12.326,27.176-31.6C1318.558,2940.641,1314.608,2927.369,1291.855,2927.369Z" fill="#fff"/>
    <path d="M1351.893,2908.093c-5.53,0-9.007-1.58-9.007-7.268,0-6,3.477-7.111,9.007-7.111,5.214,0,8.69,1.106,8.69,7.111C1360.583,2906.513,1357.107,2908.093,1351.893,2908.093Zm-6.005,91.01v-80.9h11.693v80.9Z" fill="#fff"/>
    <path d="M1438.16,2999.1l-2.527-16.432c-4.425,9.954-17.223,17.381-34.13,17.381-17.222,0-31.127-7.427-31.127-24.017,0-14.694,10.271-20.857,33.181-23.543l29.39-3.476c-.159-14.537-4.9-22.279-25.281-22.279-18.487,0-23.385,7.585-23.385,19.593h-11.692c0-16.749,7.109-29.073,34.919-29.073,32.548,0,37.289,13.9,37.289,35.393V2999.1Zm-5.213-41.081-27.651,3.792c-16.591,2.37-22.6,5.846-22.6,14.063,0,9.638,8.058,14.694,21.33,14.694,16.117,0,28.916-9.164,28.916-27.018Z" fill="#fff"/>
    <path d="M1559.975,2999.1l-2.527-16.432c-4.425,9.954-17.223,17.381-34.13,17.381-17.222,0-31.127-7.427-31.127-24.017,0-14.694,10.271-20.857,33.181-23.543l29.389-3.476c-.158-14.537-4.9-22.279-25.28-22.279-18.487,0-23.385,7.585-23.385,19.593H1494.4c0-16.749,7.109-29.073,34.919-29.073,32.548,0,37.289,13.9,37.289,35.393V2999.1Zm-5.214-41.081-27.65,3.792c-16.591,2.37-22.6,5.846-22.6,14.063,0,9.638,8.058,14.694,21.33,14.694,16.117,0,28.915-9.164,28.915-27.018Z" fill="#fff"/>
    <path d="M1642.608,2999.1V2955.02c0-17.38-3.318-27.651-24.017-27.651s-25.281,9.955-25.281,27.651V2999.1h-11.85v-80.9h5.53l3.477,14.694c3.159-8.374,11.85-15.642,31.284-15.642,27.493,0,32.707,15.326,32.707,38.711V2999.1Z" fill="#fff"/>
    <path d="M1735.512,2999.1l-2.37-15.168c-3.16,8.533-12.324,16.117-32.391,16.117-27.967,0-35.393-18.645-35.393-41.556,0-22.6,7.111-41.239,35.077-41.239,18.171,0,26.7,6.478,30.021,14.7v-44.558h11.85V2999.1Zm-31.443-71.734c-22.121,0-26.7,12.641-26.7,31.127,0,18.961,4.741,31.6,26.229,31.6,22.437,0,27.177-12.326,27.177-31.6C1730.772,2940.641,1726.822,2927.369,1704.069,2927.369Z" fill="#fff"/>
    <path d="M1833.626,2897.98c29.547,0,44.716,17.381,44.716,49.93,0,32.232-16.275,51.193-46.612,51.193h-36.341V2897.98Zm-2.844,10.113h-23.069v80.9h22.121c24.017,0,36.657-12.324,36.657-41.081C1866.491,2919,1854.64,2908.093,1830.782,2908.093Z" fill="#fff"/>
    <path d="M1929.531,3000.052c-33.023,0-40.45-20.067-40.45-41.871,0-20.857,8.217-40.924,40.291-40.924,28.284,0,36.658,17.855,36.658,40.291,0,2.213,0,3.793-.159,6.005h-64.307c.79,15.958,8.058,27.176,27.651,27.176,16.906,0,23.068-8.374,24.49-16.907h12.325C1964.765,2987.727,1955.443,3000.052,1929.531,3000.052Zm-1.106-73.315c-20.541,0-26.387,12.8-26.861,27.335h52.141C1953.705,2938.588,1946.753,2926.737,1928.425,2926.737Z" fill="#fff"/>
    <path d="M2012.005,3000.052c-26.7,0-38.712-10.587-38.238-31.127H1985.3c-.158,13.746,7.742,21.488,26.544,21.488,17.223,0,22.911-6.636,23.069-12.8.79-21.015-59.252-8.375-59.568-36.974-.316-13.746,9.8-23.384,34.446-23.384,25.6,0,34.76,12.166,34.76,29.863h-11.06c-.316-12.641-6.478-20.383-24.017-20.383-17.064,0-22.594,5.846-22.278,13.273.316,18.486,59.41,7.584,59.41,36.972C2046.608,2988.517,2036.969,3000.052,2012.005,3000.052Z" fill="#fff"/>
    <path d="M2064.774,2908.093c-5.531,0-9.007-1.58-9.007-7.268,0-6,3.476-7.111,9.007-7.111,5.214,0,8.69,1.106,8.69,7.111C2073.464,2906.513,2069.988,2908.093,2064.774,2908.093Zm-6.005,91.01v-80.9h11.693v80.9Z" fill="#fff"/>
    <path d="M2121.02,3033.232c-31.759,0-40.133-11.85-40.133-30.178H2092.9c0,12.324,5.056,20.541,28.124,20.541,22.121,0,26.7-6.954,26.7-13.273,0-19.434-65.572-8.058-65.572-30.18,0-5.687,4.74-9.322,12.957-11.217-8.691-4.9-11.377-13.431-11.377-21.963,0-16.591,7.111-28.757,37.922-28.757h35.234v6l-13.43,2.212c7.9,3,11.85,10.27,11.85,20.7,0,17.064-6.636,29.23-35.867,29.23-7.268,0-12.64-.473-16.432-1.895-7.426.79-8.849,3.16-8.849,5.056,0,12.324,65.889,1.58,65.889,30.337C2160.048,3021.224,2151.357,3033.232,2121.02,3033.232Zm-1.58-105.389c-18.96,0-23.542,7.426-23.542,18.961,0,11.85,3.95,20.541,23.7,20.541,18.961,0,23.385-8.533,23.385-20.541C2142.983,2935.744,2139.191,2927.843,2119.44,2927.843Z" fill="#fff"/>
    <path d="M2230.2,2999.1V2955.02c0-17.38-3.318-27.651-24.018-27.651s-25.28,9.955-25.28,27.651V2999.1h-11.85v-80.9h5.529l3.477,14.694c3.16-8.374,11.85-15.642,31.285-15.642,27.493,0,32.707,15.326,32.707,38.711V2999.1Z" fill="#fff"/>
    <path d="M2307.3,2928v71.1h-11.693V2928h-10.9v-7.268l10.9-2.37v-7.742c0-19.277,11.218-25.6,37.289-24.017v9.8c-19.909-1.106-25.438,3.16-25.438,14.379v7.426H2332.9v9.8Z" fill="#fff"/>
    <path d="M2353.909,2954.7v44.4h-11.851v-80.9h5.372l3.634,13.9c3.16-8.216,11.693-15.484,30.812-15.168v10.744C2358.491,2926.579,2353.909,2937.165,2353.909,2954.7Z" fill="#fff"/>
    <path d="M2420.109,3000.052c-30.652,0-38.553-20.067-38.553-41.4,0-21.173,8.059-41.4,38.711-41.4s38.711,20.224,38.711,41.4C2458.978,2980.142,2450.921,3000.052,2420.109,3000.052Zm.158-72.683c-21.33,0-26.7,14.221-26.7,31.285s5.215,31.6,26.545,31.6c21.489,0,26.861-14.22,26.861-31.6C2446.97,2941.747,2441.757,2927.369,2420.267,2927.369Z" fill="#fff"/>
    <path d="M2571.474,2999.1v-47.559c0-14.695-3.317-24.017-18.644-24.017-15.485,0-19.592,9.007-19.592,24.017V2999.1h-12.009v-47.559c0-14.695-3.634-24.017-18.961-24.017s-19.591,9.007-19.591,24.017V2999.1h-11.851v-80.9h5.372l3.634,12.641c2.845-7.111,10.9-13.589,25.913-13.589,13.9,0,21.173,5.846,24.175,15.8,2.37-8.532,10.27-15.8,26.386-15.8,22.279,0,27.335,15.01,27.335,34.919V2999.1Z" fill="#fff"/>
    <path d="M2652.05,2928v47.4c0,9.955,4.108,14.537,19.592,14.537,1.739,0,3.477,0,5.531-.158v9.8c-2.529.158-4.9.316-7.111.316-21.014,0-30.02-6.952-30.02-24.491V2928h-11.061v-7.426l11.061-2.686V2897.98h11.534v20.225h25.6v9.8Z" fill="#fff"/>
    <path d="M2748.747,2999.1v-44.557c0-18.328-3.319-27.019-23.86-27.019s-25.122,8.217-25.122,27.019l-.158,44.557h-11.692V2887.394h11.692v44.241c3.16-8.532,11.061-14.378,28.441-14.378,27.176,0,32.548,14.378,32.548,38.237V2999.1Z" fill="#fff"/>
    <path d="M2811.943,3000.052c-33.023,0-40.449-20.067-40.449-41.871,0-20.857,8.216-40.924,40.291-40.924,28.283,0,36.657,17.855,36.657,40.291,0,2.213,0,3.793-.158,6.005h-64.308c.79,15.958,8.059,27.176,27.651,27.176,16.907,0,23.069-8.374,24.491-16.907h12.324C2847.178,2987.727,2837.856,3000.052,2811.943,3000.052Zm-1.106-73.315c-20.54,0-26.387,12.8-26.861,27.335h52.142C2836.118,2938.588,2829.166,2926.737,2810.837,2926.737Z" fill="#fff"/>
    <path d="M536.792,3142.883c0,33.18-13.115,46.769-43.135,46.769-30.179,0-43.293-13.589-43.293-46.769v-55.3h12.324v54.985c0,24.807,7.9,36.658,30.969,36.658s30.811-11.693,30.811-36.341v-55.3h12.324Z" fill="#fff"/>
    <path d="M614.051,3188.7v-44.083c0-17.381-3.318-27.651-24.017-27.651s-25.28,9.954-25.28,27.651V3188.7H552.9v-80.9h5.529l3.477,14.694c3.16-8.374,11.85-15.643,31.285-15.643,27.492,0,32.707,15.327,32.707,38.711V3188.7Z" fill="#fff"/>
    <path d="M646.914,3097.693c-5.53,0-9.007-1.58-9.007-7.268,0-6,3.477-7.111,9.007-7.111,5.214,0,8.69,1.107,8.69,7.111C655.6,3096.113,652.128,3097.693,646.914,3097.693Zm-6,91.011v-80.9H652.6v80.9Z" fill="#fff"/>
    <path d="M708.059,3188.7H695.576l-35.077-80.9h13.273l28.125,70.312,29.547-70.312h13.588Z" fill="#fff"/>
    <path d="M784.846,3189.652c-33.023,0-40.449-20.066-40.449-41.871,0-20.857,8.217-40.924,40.291-40.924,28.283,0,36.657,17.855,36.657,40.291,0,2.213,0,3.793-.158,6H756.88c.79,15.958,8.058,27.177,27.651,27.177,16.906,0,23.068-8.374,24.49-16.906h12.324C820.081,3177.328,810.759,3189.652,784.846,3189.652Zm-1.106-73.314c-20.541,0-26.386,12.8-26.86,27.335h52.141C809.021,3128.188,802.069,3116.338,783.74,3116.338Z" fill="#fff"/>
    <path d="M845.041,3144.305v44.4h-11.85v-80.9h5.372l3.635,13.9c3.159-8.216,11.691-15.485,30.81-15.168v10.744C849.623,3116.18,845.041,3126.766,845.041,3144.305Z" fill="#fff"/>
    <path d="M915.509,3189.652c-26.7,0-38.711-10.587-38.237-31.127h11.534c-.158,13.746,7.743,21.489,26.545,21.489,17.222,0,22.91-6.636,23.069-12.8.79-21.015-59.252-8.375-59.568-36.974-.316-13.746,9.8-23.385,34.445-23.385,25.6,0,34.761,12.167,34.761,29.864H937c-.316-12.641-6.479-20.383-24.017-20.383-17.065,0-22.6,5.846-22.279,13.272.316,18.487,59.41,7.584,59.41,36.973C950.112,3178.118,940.474,3189.652,915.509,3189.652Z" fill="#fff"/>
    <path d="M968.278,3097.693c-5.53,0-9.006-1.58-9.006-7.268,0-6,3.476-7.111,9.006-7.111,5.214,0,8.69,1.107,8.69,7.111C976.968,3096.113,973.492,3097.693,968.278,3097.693Zm-6,91.011v-80.9h11.692v80.9Z" fill="#fff"/>
    <path d="M1007.934,3117.6V3165c0,9.955,4.108,14.537,19.593,14.537,1.738,0,3.476,0,5.53-.158v9.8c-2.528.158-4.9.316-7.11.316-21.015,0-30.021-6.952-30.021-24.491v-47.4H984.865v-7.425l11.061-2.687v-19.908h11.534v20.225h25.6v9.8Z" fill="#fff"/>
    <path d="M1116.8,3188.862c0,15.643-5.688,32.391-37.131,32.391-29.231,0-36.815-12.008-36.815-28.125h11.85c.316,10.587,4.108,18.644,24.965,18.644,21.647,0,25.281-10.427,25.281-22.12v-13.9c-3.477,8.374-11.535,13.9-28.441,13.9-27.335,0-32.707-14.852-32.707-38.395v-43.451h11.692v44.4c0,17.381,3.477,27.335,24.175,27.335,20.857,0,25.281-10.112,25.281-27.809v-43.925h11.85Z" fill="#fff"/>
    <path d="M1202.587,3189.652c-30.653,0-38.554-20.066-38.554-41.4,0-21.173,8.059-41.4,38.711-41.4s38.712,20.225,38.712,41.4C1241.456,3169.743,1233.4,3189.652,1202.587,3189.652Zm.157-72.682c-21.33,0-26.7,14.22-26.7,31.285s5.214,31.6,26.545,31.6c21.488,0,26.861-14.219,26.861-31.6C1229.448,3131.349,1224.233,3116.97,1202.744,3116.97Z" fill="#fff"/>
    <path d="M1266.575,3117.6v71.1h-11.691v-71.1h-10.9v-7.267l10.9-2.37v-7.742c0-19.277,11.218-25.6,37.289-24.017v9.8c-19.909-1.107-25.439,3.16-25.439,14.379v7.426h25.439v9.8Z" fill="#fff"/>
    <path d="M1382.073,3189.652c-37.132,0-46.454-23.7-46.454-51.51s9.48-51.509,46.454-51.509c32.39,0,45.188,18.8,45.188,40.133h-12.64c-.474-16.432-9.638-29.863-32.548-29.863-27.494,0-33.972,18.328-33.972,41.239s6.478,41.24,33.972,41.24c23.068,0,32.074-12.956,32.864-30.021h12.324C1427.261,3171.8,1414.621,3189.652,1382.073,3189.652Z" fill="#fff"/>
    <path d="M1475.608,3189.652c-30.653,0-38.554-20.066-38.554-41.4,0-21.173,8.059-41.4,38.711-41.4s38.712,20.225,38.712,41.4C1514.477,3169.743,1506.418,3189.652,1475.608,3189.652Zm.157-72.682c-21.33,0-26.7,14.22-26.7,31.285s5.214,31.6,26.545,31.6c21.488,0,26.861-14.219,26.861-31.6C1502.469,3131.349,1497.254,3116.97,1475.765,3116.97Z" fill="#fff"/>
    <path d="M1587.471,3188.7v-44.083c0-17.381-3.318-27.651-24.017-27.651s-25.28,9.954-25.28,27.651V3188.7h-11.851v-80.9h5.53l3.477,14.694c3.16-8.374,11.85-15.643,31.285-15.643,27.492,0,32.707,15.327,32.707,38.711V3188.7Z" fill="#fff"/>
    <path d="M1675.319,3188.7v-44.083c0-17.381-3.318-27.651-24.017-27.651s-25.28,9.954-25.28,27.651V3188.7h-11.85v-80.9h5.529l3.477,14.694c3.16-8.374,11.85-15.643,31.285-15.643,27.492,0,32.707,15.327,32.707,38.711V3188.7Z" fill="#fff"/>
    <path d="M1738.519,3189.652c-33.023,0-40.449-20.066-40.449-41.871,0-20.857,8.216-40.924,40.291-40.924,28.283,0,36.657,17.855,36.657,40.291,0,2.213,0,3.793-.158,6h-64.308c.79,15.958,8.058,27.177,27.651,27.177,16.906,0,23.068-8.374,24.491-16.906h12.324C1773.754,3177.328,1764.431,3189.652,1738.519,3189.652Zm-1.106-73.314c-20.541,0-26.387,12.8-26.861,27.335h52.142C1762.694,3128.188,1755.741,3116.338,1737.413,3116.338Z" fill="#fff"/>
    <path d="M1822.415,3189.652c-31.759,0-39.5-19.909-39.5-41.4s7.9-41.4,39.027-41.4c24.807,0,36.025,12.8,36.025,32.866h-12.008c-.79-14.537-7.427-22.753-24.175-22.753-21.331,0-27.019,13.747-27.019,31.127s5.53,31.6,27.177,31.6c16.906,0,23.384-8.375,24.017-22.595h12.008C1857.966,3177.328,1847.064,3189.652,1822.415,3189.652Z" fill="#fff"/>
    <path d="M1886.088,3117.6V3165c0,9.955,4.108,14.537,19.593,14.537,1.738,0,3.476,0,5.53-.158v9.8c-2.528.158-4.9.316-7.11.316-21.015,0-30.021-6.952-30.021-24.491v-47.4h-11.061v-7.425l11.061-2.687v-19.908h11.534v20.225h25.6v9.8Z" fill="#fff"/>
    <path d="M1928.115,3097.693c-5.53,0-9.006-1.58-9.006-7.268,0-6,3.476-7.111,9.006-7.111,5.214,0,8.69,1.107,8.69,7.111C1936.805,3096.113,1933.329,3097.693,1928.115,3097.693Zm-6,91.011v-80.9H1933.8v80.9Z" fill="#fff"/>
    <path d="M1985.152,3189.652c-31.759,0-39.5-19.909-39.5-41.4s7.9-41.4,39.027-41.4c24.807,0,36.025,12.8,36.025,32.866H2008.7c-.79-14.537-7.427-22.753-24.175-22.753-21.331,0-27.019,13.747-27.019,31.127s5.53,31.6,27.177,31.6c16.906,0,23.384-8.375,24.017-22.595H2020.7C2020.7,3177.328,2009.8,3189.652,1985.152,3189.652Z" fill="#fff"/>
    <path d="M2099.859,3188.7l-2.37-14.536c-3.16,8.216-11.851,15.484-31.285,15.484-27.493,0-32.707-15.011-32.707-38.237v-43.609h11.534v44.557c0,17.38,3.634,27.335,24.333,27.335s25.281-10.112,25.281-27.967v-43.925h11.85v80.9Z" fill="#fff"/>
    <path d="M2140.3,3117.6V3165c0,9.955,4.108,14.537,19.593,14.537,1.738,0,3.476,0,5.53-.158v9.8c-2.528.158-4.9.316-7.11.316-21.015,0-30.021-6.952-30.021-24.491v-47.4h-11.06v-7.425l11.06-2.687v-19.908h11.534v20.225h25.6v9.8Z" fill="#fff"/>
    <path d="M2182.015,3189.652c-5.846,0-9.8-1.58-9.8-8.374,0-6.478,4.108-8.058,9.8-8.058,5.847,0,9.8,1.58,9.8,8.058C2191.811,3188.072,2187.862,3189.652,2182.015,3189.652Z" fill="#fff"/>
    <path d="M451.944,3567.9V3466.78h12.324V3567.9Z" fill="#fff"/>
    <path d="M582.293,3567.9l-2.528-16.432c-4.424,9.954-17.222,17.38-34.129,17.38-17.222,0-31.127-7.426-31.127-24.016,0-14.7,10.271-20.858,33.181-23.543l29.389-3.477c-.158-14.536-4.9-22.278-25.28-22.278-18.487,0-23.385,7.584-23.385,19.593H516.721c0-16.749,7.11-29.073,34.919-29.073,32.549,0,37.289,13.9,37.289,35.393V3567.9Zm-5.214-41.081-27.651,3.792c-16.59,2.37-22.594,5.846-22.594,14.063,0,9.637,8.058,14.694,21.33,14.694,16.117,0,28.915-9.164,28.915-27.019Z" fill="#fff"/>
    <path d="M704.427,3567.9v-47.559c0-14.7-3.318-24.017-18.645-24.017-15.484,0-19.592,9.006-19.592,24.017V3567.9H654.181v-47.559c0-14.7-3.634-24.017-18.96-24.017s-19.593,9.006-19.593,24.017V3567.9h-11.85v-80.9h5.372l3.634,12.64c2.844-7.11,10.9-13.588,25.913-13.588,13.9,0,21.172,5.846,24.175,15.8,2.37-8.532,10.27-15.8,26.387-15.8,22.278,0,27.335,15.01,27.335,34.918V3567.9Z" fill="#fff"/>
    <path d="M831.613,3567.9l-2.528-16.432c-4.424,9.954-17.222,17.38-34.129,17.38-17.222,0-31.127-7.426-31.127-24.016,0-14.7,10.27-20.858,33.181-23.543l29.389-3.477c-.158-14.536-4.9-22.278-25.281-22.278-18.486,0-23.384,7.584-23.384,19.593H766.041c0-16.749,7.11-29.073,34.919-29.073,32.549,0,37.289,13.9,37.289,35.393V3567.9Zm-5.214-41.081-27.651,3.792c-16.591,2.37-22.594,5.846-22.594,14.063,0,9.637,8.058,14.694,21.33,14.694,16.116,0,28.915-9.164,28.915-27.019Z" fill="#fff"/>
    <path d="M888.8,3567.9V3456.194H900.5V3567.9Z" fill="#fff"/>
    <path d="M952.636,3568.851c-33.022,0-40.449-20.066-40.449-41.871,0-20.857,8.217-40.923,40.291-40.923,28.283,0,36.658,17.854,36.658,40.291,0,2.212,0,3.792-.159,6H924.67c.79,15.958,8.058,27.177,27.651,27.177,16.906,0,23.068-8.374,24.49-16.906h12.325C987.871,3556.527,978.549,3568.851,952.636,3568.851Zm-1.105-73.314c-20.541,0-26.387,12.8-26.861,27.335h52.141C976.811,3507.388,969.859,3495.537,951.531,3495.537Z" fill="#fff"/>
    <path d="M1065.763,3567.9l-2.527-16.432c-4.425,9.954-17.223,17.38-34.13,17.38-17.222,0-31.127-7.426-31.127-24.016,0-14.7,10.271-20.858,33.181-23.543l29.39-3.477c-.159-14.536-4.9-22.278-25.281-22.278-18.487,0-23.385,7.584-23.385,19.593h-11.692c0-16.749,7.11-29.073,34.919-29.073,32.548,0,37.289,13.9,37.289,35.393V3567.9Zm-5.213-41.081-27.651,3.792c-16.591,2.37-22.595,5.846-22.595,14.063,0,9.637,8.058,14.694,21.331,14.694,16.116,0,28.915-9.164,28.915-27.019Z" fill="#fff"/>
    <path d="M1153.452,3567.9s-.79-5.055-2.37-15.169c-3.16,8.533-12.324,16.117-32.391,16.117-27.967,0-35.393-18.644-35.393-41.555,0-22.595,7.11-41.239,35.077-41.239,18.171,0,26.7,6.478,30.021,14.694v-44.557h11.85V3567.9Zm-31.443-71.734c-22.121,0-26.7,12.64-26.7,31.127,0,18.961,4.741,31.6,26.229,31.6,22.437,0,27.177-12.325,27.177-31.6C1148.712,3509.441,1144.762,3496.169,1122.009,3496.169Z" fill="#fff"/>
    <path d="M1212.384,3568.851c-33.023,0-40.45-20.066-40.45-41.871,0-20.857,8.217-40.923,40.291-40.923,28.284,0,36.658,17.854,36.658,40.291,0,2.212,0,3.792-.159,6h-64.307c.79,15.958,8.058,27.177,27.651,27.177,16.906,0,23.068-8.374,24.49-16.906h12.325C1247.618,3556.527,1238.3,3568.851,1212.384,3568.851Zm-1.106-73.314c-20.541,0-26.387,12.8-26.861,27.335h52.141C1236.558,3507.388,1229.606,3495.537,1211.278,3495.537Z" fill="#fff"/>
    <path d="M1272.579,3523.5v44.4h-11.85v-80.9h5.372l3.634,13.9c3.16-8.216,11.692-15.484,30.811-15.168v10.744C1277.161,3495.379,1272.579,3505.966,1272.579,3523.5Z" fill="#fff"/>
    <path d="M1310.5,3565.375l-4.424,23.385h-7.584l2.528-19.909c-5.688,0-9.48-1.738-9.48-8.374,0-6.478,4.108-8.058,9.8-8.058C1310.815,3552.419,1312.079,3556.843,1310.5,3565.375Z" fill="#fff"/>
    <path d="M1422.994,3567.9l-2.527-16.432c-4.425,9.954-17.223,17.38-34.13,17.38-17.222,0-31.127-7.426-31.127-24.016,0-14.7,10.271-20.858,33.181-23.543l29.39-3.477c-.159-14.536-4.9-22.278-25.281-22.278-18.487,0-23.385,7.584-23.385,19.593h-11.692c0-16.749,7.109-29.073,34.919-29.073,32.548,0,37.289,13.9,37.289,35.393V3567.9Zm-5.213-41.081-27.651,3.792c-16.591,2.37-22.6,5.846-22.6,14.063,0,9.637,8.058,14.694,21.33,14.694,16.117,0,28.916-9.164,28.916-27.019Z" fill="#fff"/>
    <path d="M1515.578,3568.851c-31.758,0-39.5-19.909-39.5-41.4s7.9-41.4,39.028-41.4c24.806,0,36.025,12.8,36.025,32.865h-12.009c-.79-14.536-7.426-22.753-24.174-22.753-21.331,0-27.02,13.747-27.02,31.127s5.531,31.6,27.178,31.6c16.906,0,23.384-8.375,24.016-22.594h12.009C1551.13,3556.527,1540.227,3568.851,1515.578,3568.851Z" fill="#fff"/>
    <path d="M1576.721,3523.5v44.4h-11.85v-80.9h5.372l3.635,13.9c3.159-8.216,11.692-15.484,30.81-15.168v10.744C1581.3,3495.379,1576.721,3505.966,1576.721,3523.5Z" fill="#fff"/>
    <path d="M1644.82,3568.851c-33.023,0-40.45-20.066-40.45-41.871,0-20.857,8.217-40.923,40.291-40.923,28.284,0,36.658,17.854,36.658,40.291,0,2.212,0,3.792-.159,6h-64.307c.79,15.958,8.058,27.177,27.651,27.177,16.906,0,23.068-8.374,24.49-16.906h12.325C1680.054,3556.527,1670.732,3568.851,1644.82,3568.851Zm-1.106-73.314c-20.541,0-26.387,12.8-26.861,27.335h52.141C1668.994,3507.388,1662.042,3495.537,1643.714,3495.537Z" fill="#fff"/>
    <path d="M1757.947,3567.9l-2.528-16.432c-4.425,9.954-17.223,17.38-34.13,17.38-17.222,0-31.127-7.426-31.127-24.016,0-14.7,10.271-20.858,33.182-23.543l29.389-3.477c-.159-14.536-4.9-22.278-25.281-22.278-18.487,0-23.385,7.584-23.385,19.593h-11.692c0-16.749,7.11-29.073,34.919-29.073,32.549,0,37.289,13.9,37.289,35.393V3567.9Zm-5.214-41.081-27.651,3.792c-16.591,2.37-22.6,5.846-22.6,14.063,0,9.637,8.058,14.694,21.331,14.694,16.116,0,28.915-9.164,28.915-27.019Z" fill="#fff"/>
    <path d="M1794.76,3496.8v47.4c0,9.955,4.107,14.537,19.592,14.537,1.738,0,3.476,0,5.53-.158v9.8c-2.528.158-4.9.316-7.11.316-21.014,0-30.021-6.952-30.021-24.491v-47.4h-11.06v-7.426l11.06-2.687V3466.78h11.534v20.225h25.6v9.8Z" fill="#fff"/>
    <path d="M1836.786,3476.892c-5.53,0-9.006-1.58-9.006-7.268,0-6,3.476-7.11,9.006-7.11,5.214,0,8.691,1.106,8.691,7.11C1845.477,3475.312,1842,3476.892,1836.786,3476.892Zm-6,91.011v-80.9h11.692v80.9Z" fill="#fff"/>
    <path d="M1897.931,3567.9h-12.482l-35.077-80.9h13.272l28.125,70.312,29.547-70.312h13.589Z" fill="#fff"/>
    <path d="M1974.719,3568.851c-33.023,0-40.45-20.066-40.45-41.871,0-20.857,8.217-40.923,40.291-40.923,28.284,0,36.658,17.854,36.658,40.291,0,2.212,0,3.792-.159,6h-64.307c.79,15.958,8.058,27.177,27.651,27.177,16.906,0,23.068-8.374,24.49-16.906h12.325C2009.953,3556.527,2000.631,3568.851,1974.719,3568.851Zm-1.106-73.314c-20.541,0-26.387,12.8-26.861,27.335h52.141C1998.893,3507.388,1991.941,3495.537,1973.613,3495.537Z" fill="#fff"/>
    <path d="M2076.782,3496.8v47.4c0,9.955,4.108,14.537,19.593,14.537,1.738,0,3.476,0,5.53-.158v9.8c-2.528.158-4.9.316-7.11.316-21.014,0-30.021-6.952-30.021-24.491v-47.4h-11.06v-7.426l11.06-2.687V3466.78h11.534v20.225h25.6v9.8Z" fill="#fff"/>
    <path d="M2173.479,3567.9v-44.557c0-18.329-3.318-27.019-23.859-27.019s-25.123,8.216-25.123,27.019l-.157,44.557h-11.693V3456.194h11.693v44.241c3.159-8.532,11.06-14.378,28.441-14.378,27.176,0,32.548,14.378,32.548,38.237V3567.9Z" fill="#fff"/>
    <path d="M2206.339,3476.892c-5.53,0-9.006-1.58-9.006-7.268,0-6,3.476-7.11,9.006-7.11,5.214,0,8.691,1.106,8.691,7.11C2215.03,3475.312,2211.553,3476.892,2206.339,3476.892Zm-6,91.011v-80.9h11.693v80.9Z" fill="#fff"/>
    <path d="M2288.973,3567.9V3523.82c0-17.381-3.318-27.651-24.016-27.651s-25.28,9.954-25.28,27.651V3567.9h-11.851v-80.9h5.53l3.476,14.694c3.16-8.374,11.85-15.642,31.285-15.642,27.493,0,32.707,15.327,32.707,38.71V3567.9Z" fill="#fff"/>
    <path d="M2368.921,3567.9l-41.4-37.447V3567.9h-11.692V3456.194h11.692V3520.5l36.973-33.5h17.381L2337,3525.4l48.824,42.5Z" fill="#fff"/>
    <path d="M2422.325,3568.851c-33.023,0-40.449-20.066-40.449-41.871,0-20.857,8.216-40.923,40.291-40.923,28.283,0,36.657,17.854,36.657,40.291,0,2.212,0,3.792-.158,6h-64.308c.79,15.958,8.059,27.177,27.651,27.177,16.907,0,23.069-8.374,24.491-16.906h12.324C2457.56,3556.527,2448.238,3568.851,2422.325,3568.851Zm-1.106-73.314c-20.541,0-26.387,12.8-26.861,27.335H2446.5C2446.5,3507.388,2439.548,3495.537,2421.219,3495.537Z" fill="#fff"/>
    <path d="M2482.52,3523.5v44.4h-11.85v-80.9h5.372l3.634,13.9c3.16-8.216,11.692-15.484,30.811-15.168v10.744C2487.1,3495.379,2482.52,3505.966,2482.52,3523.5Z" fill="#fff"/>
    <path d="M2520.44,3565.375l-4.425,23.385h-7.584l2.529-19.909c-5.689,0-9.481-1.738-9.481-8.374,0-6.478,4.109-8.058,9.8-8.058C2520.756,3552.419,2522.02,3556.843,2520.44,3565.375Z" fill="#fff"/>
    <path d="M2632.936,3567.9l-2.528-16.432c-4.425,9.954-17.223,17.38-34.129,17.38-17.223,0-31.127-7.426-31.127-24.016,0-14.7,10.271-20.858,33.181-23.543l29.388-3.477c-.158-14.536-4.9-22.278-25.28-22.278-18.486,0-23.385,7.584-23.385,19.593h-11.692c0-16.749,7.11-29.073,34.919-29.073,32.549,0,37.289,13.9,37.289,35.393V3567.9Zm-5.215-41.081-27.65,3.792c-16.591,2.37-22.595,5.846-22.595,14.063,0,9.637,8.058,14.694,21.33,14.694,16.118,0,28.915-9.164,28.915-27.019Z" fill="#fff"/>
    <path d="M2715.568,3567.9V3523.82c0-17.381-3.317-27.651-24.016-27.651s-25.281,9.954-25.281,27.651V3567.9h-11.85v-80.9h5.53l3.476,14.694c3.16-8.374,11.85-15.642,31.285-15.642,27.493,0,32.707,15.327,32.707,38.71V3567.9Z" fill="#fff"/>
    <path d="M2808.472,3567.9s-.79-5.055-2.37-15.169c-3.16,8.533-12.324,16.117-32.391,16.117-27.967,0-35.393-18.644-35.393-41.555,0-22.595,7.11-41.239,35.077-41.239,18.17,0,26.7,6.478,30.021,14.694v-44.557h11.85V3567.9Zm-31.443-71.734c-22.12,0-26.7,12.64-26.7,31.127,0,18.961,4.74,31.6,26.229,31.6,22.437,0,27.177-12.325,27.177-31.6C2803.732,3509.441,2799.782,3496.169,2777.029,3496.169Z" fill="#fff"/>
    <path d="M2931.236,3567.9l-2.528-16.432c-4.424,9.954-17.223,17.38-34.129,17.38-17.223,0-31.127-7.426-31.127-24.016,0-14.7,10.269-20.858,33.181-23.543l29.388-3.477c-.158-14.536-4.9-22.278-25.28-22.278-18.486,0-23.385,7.584-23.385,19.593h-11.692c0-16.749,7.11-29.073,34.919-29.073,32.549,0,37.289,13.9,37.289,35.393V3567.9Zm-5.215-41.081-27.65,3.792c-16.591,2.37-22.6,5.846-22.6,14.063,0,9.637,8.059,14.694,21.33,14.694,16.117,0,28.915-9.164,28.915-27.019Z" fill="#fff"/>
    <path d="M510.879,3757.5v-44.558c0-18.328-3.318-27.018-23.858-27.018s-25.123,8.215-25.123,27.018l-.158,44.558H450.048V3645.8H461.74v44.241c3.16-8.532,11.06-14.379,28.441-14.379,27.177,0,32.549,14.379,32.549,38.237v43.61Z" fill="#fff"/>
    <path d="M602.359,3757.5l-2.528-16.433c-4.424,9.954-17.222,17.381-34.129,17.381-17.222,0-31.127-7.427-31.127-24.017,0-14.694,10.27-20.857,33.181-23.543l29.389-3.476c-.158-14.536-4.9-22.278-25.28-22.278-18.487,0-23.385,7.584-23.385,19.592H536.787c0-16.749,7.11-29.073,34.919-29.073,32.549,0,37.289,13.9,37.289,35.394V3757.5Zm-5.214-41.081-27.651,3.792c-16.59,2.37-22.594,5.845-22.594,14.062,0,9.638,8.058,14.7,21.33,14.7,16.116,0,28.915-9.165,28.915-27.019Z" fill="#fff"/>
    <path d="M635.694,3713.1v44.4h-11.85v-80.9h5.372l3.634,13.905c3.16-8.216,11.692-15.485,30.811-15.168v10.744C640.276,3684.979,635.694,3695.566,635.694,3713.1Z" fill="#fff"/>
    <path d="M733.5,3757.5s-.79-5.057-2.37-15.168c-3.16,8.532-12.325,16.116-32.391,16.116-27.967,0-35.393-18.645-35.393-41.556,0-22.594,7.11-41.239,35.077-41.239,18.171,0,26.7,6.479,30.021,14.694V3645.8h11.85V3757.5Zm-31.443-71.735c-22.121,0-26.7,12.641-26.7,31.127,0,18.961,4.741,31.6,26.229,31.6,22.437,0,27.177-12.325,27.177-31.6C728.757,3699.042,724.807,3685.769,702.054,3685.769Z" fill="#fff"/>
    <path d="M845.2,3757.5H831.614l-22.437-67.468L787.372,3757.5H774.416l-25.439-80.9h13.115l19.276,67.626,22.121-67.626h11.692l22.753,68.1,20.54-68.1h12.8Z" fill="#fff"/>
    <path d="M912.668,3758.452c-30.653,0-38.553-20.066-38.553-41.4,0-21.173,8.058-41.4,38.711-41.4s38.711,20.225,38.711,41.4C951.537,3738.543,943.479,3758.452,912.668,3758.452Zm.158-72.683c-21.331,0-26.7,14.221-26.7,31.286s5.215,31.6,26.545,31.6c21.488,0,26.861-14.22,26.861-31.6C939.529,3700.148,934.315,3685.769,912.826,3685.769Z" fill="#fff"/>
    <path d="M975.234,3713.1v44.4h-11.85v-80.9h5.372l3.634,13.905c3.16-8.216,11.692-15.485,30.811-15.168v10.744C979.816,3684.979,975.234,3695.566,975.234,3713.1Z" fill="#fff"/>
    <path d="M1064.821,3757.5l-41.4-37.447V3757.5h-11.692V3645.8h11.692V3710.1l36.973-33.5h17.381L1032.9,3715l48.823,42.5Z" fill="#fff"/>
    <path d="M1118.224,3758.452c-33.023,0-40.449-20.066-40.449-41.871,0-20.857,8.216-40.924,40.291-40.924,28.283,0,36.657,17.855,36.657,40.291,0,2.213,0,3.793-.158,6.005h-64.307c.79,15.958,8.058,27.177,27.65,27.177,16.907,0,23.069-8.374,24.491-16.907h12.324C1153.459,3746.128,1144.137,3758.452,1118.224,3758.452Zm-1.106-73.314c-20.541,0-26.386,12.8-26.86,27.335H1142.4C1142.4,3696.988,1135.447,3685.138,1117.118,3685.138Z" fill="#fff"/>
    <path d="M1178.42,3713.1v44.4h-11.85v-80.9h5.372l3.634,13.905c3.16-8.216,11.692-15.485,30.81-15.168v10.744C1183,3684.979,1178.42,3695.566,1178.42,3713.1Z" fill="#fff"/>
    <path d="M1339.579,3757.5h-13.588l-22.437-67.468-21.8,67.468h-12.957l-25.438-80.9h13.114l19.276,67.626,22.121-67.626h11.692l22.753,68.1,20.541-68.1h12.8Z" fill="#fff"/>
    <path d="M1380.656,3666.493c-5.53,0-9.006-1.58-9.006-7.269,0-6,3.476-7.11,9.006-7.11,5.214,0,8.691,1.107,8.691,7.11C1389.347,3664.913,1385.87,3666.493,1380.656,3666.493Zm-6,91.011v-80.9h11.692v80.9Z" fill="#fff"/>
    <path d="M1420.313,3686.4v47.4c0,9.955,4.108,14.537,19.593,14.537,1.737,0,3.476,0,5.529-.158v9.8c-2.528.159-4.9.317-7.11.317-21.014,0-30.021-6.952-30.021-24.491v-47.4h-11.06v-7.426l11.06-2.686v-19.908h11.535v20.224h25.6v9.8Z" fill="#fff"/>
    <path d="M1517.009,3757.5v-44.558c0-18.328-3.318-27.018-23.858-27.018s-25.123,8.215-25.123,27.018l-.158,44.558h-11.693V3645.8h11.693v44.241c3.16-8.532,11.06-14.379,28.441-14.379,27.177,0,32.549,14.379,32.549,38.237v43.61Z" fill="#fff"/>
    <path d="M1644.037,3757.5l-2.527-16.433c-4.425,9.954-17.223,17.381-34.13,17.381-17.222,0-31.127-7.427-31.127-24.017,0-14.694,10.271-20.857,33.181-23.543l29.389-3.476c-.158-14.536-4.9-22.278-25.28-22.278-18.487,0-23.385,7.584-23.385,19.592h-11.692c0-16.749,7.109-29.073,34.919-29.073,32.548,0,37.289,13.9,37.289,35.394V3757.5Zm-5.214-41.081-27.65,3.792c-16.591,2.37-22.6,5.845-22.6,14.062,0,9.638,8.058,14.7,21.33,14.7,16.117,0,28.915-9.165,28.915-27.019Z" fill="#fff"/>
    <path d="M1767.274,3757.5s-.789-5.057-2.369-15.168c-3.161,8.532-12.325,16.116-32.392,16.116-27.966,0-35.393-18.645-35.393-41.556,0-22.594,7.111-41.239,35.078-41.239,18.17,0,26.7,6.479,30.02,14.694V3645.8h11.851V3757.5Zm-31.443-71.735c-22.12,0-26.7,12.641-26.7,31.127,0,18.961,4.74,31.6,26.229,31.6,22.436,0,27.176-12.325,27.176-31.6C1762.534,3699.042,1758.584,3685.769,1735.831,3685.769Z" fill="#fff"/>
    <path d="M1801.557,3713.1v44.4h-11.85v-80.9h5.372l3.634,13.905c3.16-8.216,11.692-15.485,30.811-15.168v10.744C1806.139,3684.979,1801.557,3695.566,1801.557,3713.1Z" fill="#fff"/>
    <path d="M1844.058,3666.493c-5.53,0-9.006-1.58-9.006-7.269,0-6,3.476-7.11,9.006-7.11,5.214,0,8.69,1.107,8.69,7.11C1852.748,3664.913,1849.272,3666.493,1844.058,3666.493Zm-6,91.011v-80.9h11.693v80.9Z" fill="#fff"/>
    <path d="M1905.2,3757.5H1892.72l-35.077-80.9h13.273l28.125,70.313,29.547-70.313h13.588Z" fill="#fff"/>
    <path d="M1981.99,3758.452c-33.022,0-40.449-20.066-40.449-41.871,0-20.857,8.217-40.924,40.291-40.924,28.283,0,36.658,17.855,36.658,40.291,0,2.213,0,3.793-.159,6.005h-64.307c.79,15.958,8.058,27.177,27.651,27.177,16.906,0,23.068-8.374,24.49-16.907h12.325C2017.225,3746.128,2007.9,3758.452,1981.99,3758.452Zm-1.105-73.314c-20.541,0-26.387,12.8-26.861,27.335h52.141C2006.165,3696.988,1999.213,3685.138,1980.885,3685.138Z" fill="#fff"/>
    <path d="M2084.054,3686.4v47.4c0,9.955,4.108,14.537,19.593,14.537,1.738,0,3.476,0,5.53-.158v9.8c-2.528.159-4.9.317-7.11.317-21.015,0-30.021-6.952-30.021-24.491v-47.4h-11.06v-7.426l11.06-2.686v-19.908h11.534v20.224h25.6v9.8Z" fill="#fff"/>
    <path d="M2149.31,3758.452c-30.653,0-38.553-20.066-38.553-41.4,0-21.173,8.058-41.4,38.711-41.4s38.711,20.225,38.711,41.4C2188.179,3738.543,2180.12,3758.452,2149.31,3758.452Zm.158-72.683c-21.331,0-26.7,14.221-26.7,31.286s5.214,31.6,26.545,31.6c21.488,0,26.861-14.22,26.861-31.6C2176.171,3700.148,2170.956,3685.769,2149.468,3685.769Z" fill="#fff"/>
    <path d="M2269.7,3758.452c-26.7,0-38.711-10.587-38.237-31.127H2243c-.158,13.746,7.742,21.488,26.545,21.488,17.222,0,22.911-6.635,23.069-12.8.79-21.014-59.252-8.375-59.568-36.973-.316-13.746,9.8-23.385,34.445-23.385,25.6,0,34.761,12.167,34.761,29.863h-11.061c-.315-12.64-6.477-20.382-24.016-20.382-17.065,0-22.595,5.846-22.279,13.272.316,18.486,59.409,7.584,59.409,36.973C2304.306,3746.918,2294.669,3758.452,2269.7,3758.452Z" fill="#fff"/>
    <path d="M2381.725,3757.5l-2.37-14.536c-3.16,8.215-11.85,15.484-31.285,15.484-27.493,0-32.707-15.011-32.707-38.237v-43.61H2326.9v44.558c0,17.38,3.635,27.335,24.333,27.335s25.281-10.112,25.281-27.967v-43.926h11.85v80.9Z" fill="#fff"/>
    <path d="M2439.551,3758.452c-31.759,0-39.5-19.909-39.5-41.4s7.9-41.4,39.027-41.4c24.807,0,36.024,12.8,36.024,32.865h-12.007c-.791-14.536-7.427-22.753-24.175-22.753-21.331,0-27.019,13.747-27.019,31.127s5.53,31.6,27.177,31.6c16.906,0,23.385-8.375,24.017-22.6H2475.1C2475.1,3746.128,2464.2,3758.452,2439.551,3758.452Z" fill="#fff"/>
    <path d="M2523.447,3758.452c-31.759,0-39.5-19.909-39.5-41.4s7.9-41.4,39.027-41.4c24.807,0,36.025,12.8,36.025,32.865H2546.99c-.79-14.536-7.427-22.753-24.175-22.753-21.331,0-27.018,13.747-27.018,31.127s5.53,31.6,27.176,31.6c16.907,0,23.385-8.375,24.017-22.6H2559C2559,3746.128,2548.095,3758.452,2523.447,3758.452Z" fill="#fff"/>
    <path d="M2609.239,3758.452c-33.023,0-40.449-20.066-40.449-41.871,0-20.857,8.216-40.924,40.291-40.924,28.283,0,36.657,17.855,36.657,40.291,0,2.213,0,3.793-.158,6.005h-64.308c.79,15.958,8.059,27.177,27.651,27.177,16.907,0,23.069-8.374,24.491-16.907h12.324C2644.474,3746.128,2635.152,3758.452,2609.239,3758.452Zm-1.106-73.314c-20.54,0-26.387,12.8-26.861,27.335h52.142C2633.414,3696.988,2626.462,3685.138,2608.133,3685.138Z" fill="#fff"/>
    <path d="M2694.083,3758.452c-33.024,0-40.449-20.066-40.449-41.871,0-20.857,8.215-40.924,40.291-40.924,28.283,0,36.657,17.855,36.657,40.291,0,2.213,0,3.793-.158,6.005h-64.308c.79,15.958,8.059,27.177,27.65,27.177,16.908,0,23.07-8.374,24.492-16.907h12.324C2729.318,3746.128,2720,3758.452,2694.083,3758.452Zm-1.107-73.314c-20.54,0-26.386,12.8-26.86,27.335h52.142C2718.258,3696.988,2711.305,3685.138,2692.976,3685.138Z" fill="#fff"/>
    <path d="M2808.632,3757.5s-.79-5.057-2.371-15.168c-3.16,8.532-12.324,16.116-32.391,16.116-27.967,0-35.393-18.645-35.393-41.556,0-22.594,7.111-41.239,35.077-41.239,18.17,0,26.7,6.479,30.021,14.694V3645.8h11.851V3757.5Zm-31.444-71.735c-22.12,0-26.7,12.641-26.7,31.127,0,18.961,4.74,31.6,26.23,31.6,22.436,0,27.176-12.325,27.176-31.6C2803.891,3699.042,2799.941,3685.769,2777.188,3685.769Z" fill="#fff"/>
    <path d="M2931.4,3757.5l-2.528-16.433c-4.425,9.954-17.223,17.381-34.129,17.381-17.223,0-31.127-7.427-31.127-24.017,0-14.694,10.271-20.857,33.181-23.543l29.388-3.476c-.158-14.536-4.9-22.278-25.28-22.278-18.486,0-23.385,7.584-23.385,19.592h-11.692c0-16.749,7.11-29.073,34.919-29.073,32.549,0,37.289,13.9,37.289,35.394V3757.5Zm-5.215-41.081-27.65,3.792c-16.591,2.37-22.6,5.845-22.6,14.062,0,9.638,8.058,14.7,21.33,14.7,16.118,0,28.915-9.165,28.915-27.019Z" fill="#fff"/>
    <path d="M3014.027,3757.5v-44.083c0-17.381-3.317-27.652-24.016-27.652s-25.281,9.955-25.281,27.652V3757.5h-11.85v-80.9h5.53l3.476,14.7c3.16-8.374,11.85-15.643,31.285-15.643,27.493,0,32.707,15.327,32.707,38.711V3757.5Z" fill="#fff"/>
    <path d="M3106.931,3757.5l-2.37-15.168c-3.16,8.532-12.324,16.116-32.391,16.116-27.967,0-35.393-18.645-35.393-41.556,0-22.594,7.11-41.239,35.077-41.239,18.17,0,26.7,6.479,30.021,14.694V3645.8h11.85V3757.5Zm-31.443-71.735c-22.12,0-26.7,12.641-26.7,31.127,0,18.961,4.74,31.6,26.229,31.6,22.437,0,27.177-12.325,27.177-31.6C3102.191,3699.042,3098.241,3685.769,3075.488,3685.769Z" fill="#fff"/>
    <path d="M3183.083,3686.4v47.4c0,9.955,4.108,14.537,19.593,14.537,1.738,0,3.476,0,5.53-.158v9.8c-2.529.159-4.9.317-7.111.317-21.014,0-30.02-6.952-30.02-24.491v-47.4h-11.061v-7.426l11.061-2.686v-19.908h11.534v20.224h25.6v9.8Z" fill="#fff"/>
    <path d="M3279.78,3757.5v-44.558c0-18.328-3.318-27.018-23.859-27.018s-25.122,8.215-25.122,27.018l-.159,44.558h-11.692V3645.8h11.692v44.241c3.161-8.532,11.061-14.379,28.441-14.379,27.177,0,32.549,14.379,32.549,38.237v43.61Z" fill="#fff"/>
    <path d="M3342.976,3758.452c-33.023,0-40.449-20.066-40.449-41.871,0-20.857,8.216-40.924,40.291-40.924,28.283,0,36.657,17.855,36.657,40.291,0,2.213,0,3.793-.158,6.005H3315.01c.79,15.958,8.058,27.177,27.65,27.177,16.907,0,23.069-8.374,24.491-16.907h12.324C3378.212,3746.128,3368.889,3758.452,3342.976,3758.452Zm-1.106-73.314c-20.54,0-26.387,12.8-26.86,27.335h52.141C3367.151,3696.988,3360.2,3685.138,3341.87,3685.138Z" fill="#fff"/>
    <path d="M468.218,3876v47.4c0,9.955,4.108,14.537,19.593,14.537,1.738,0,3.476,0,5.53-.158v9.8c-2.528.158-4.9.316-7.11.316-21.015,0-30.021-6.952-30.021-24.491V3876H445.149v-7.426l11.061-2.686V3845.98h11.534v20.225h25.6v9.8Z" fill="#fff"/>
    <path d="M563.652,3947.1l-2.528-16.432c-4.424,9.954-17.222,17.381-34.129,17.381-17.222,0-31.127-7.427-31.127-24.017,0-14.694,10.27-20.857,33.181-23.543l29.389-3.477c-.158-14.536-4.9-22.278-25.281-22.278-18.486,0-23.384,7.584-23.384,19.593H498.08c0-16.749,7.11-29.073,34.919-29.073,32.549,0,37.289,13.9,37.289,35.393V3947.1Zm-5.214-41.081-27.651,3.792c-16.59,2.37-22.594,5.846-22.594,14.063,0,9.638,8.058,14.694,21.33,14.694,16.116,0,28.915-9.164,28.915-27.018Z" fill="#fff"/>
    <path d="M585.295,3947.1V3835.394h11.692V3947.1Z" fill="#fff"/>
    <path d="M649.127,3948.052c-33.023,0-40.449-20.067-40.449-41.871,0-20.858,8.216-40.924,40.291-40.924,28.283,0,36.657,17.854,36.657,40.291,0,2.213,0,3.793-.158,6.005H621.16c.79,15.958,8.059,27.176,27.651,27.176,16.907,0,23.069-8.374,24.491-16.907h12.324C684.362,3935.727,675.04,3948.052,649.127,3948.052Zm-1.106-73.315c-20.54,0-26.386,12.8-26.861,27.335H673.3C673.3,3886.588,666.35,3874.737,648.021,3874.737Z" fill="#fff"/>
    <path d="M758.62,3947.1V3903.02c0-17.38-3.318-27.651-24.017-27.651s-25.28,9.954-25.28,27.651V3947.1H697.472v-80.9H703l3.477,14.694c3.159-8.374,11.85-15.642,31.284-15.642,27.493,0,32.707,15.327,32.707,38.711V3947.1Z" fill="#fff"/>
    <path d="M801.28,3876v47.4c0,9.955,4.108,14.537,19.593,14.537,1.738,0,3.476,0,5.53-.158v9.8c-2.528.158-4.9.316-7.11.316-21.015,0-30.021-6.952-30.021-24.491V3876H778.211v-7.426l11.061-2.686V3845.98h11.534v20.225h25.6v9.8Z" fill="#fff"/>
    <path d="M852.155,3944.575l-4.424,23.385h-7.584l2.528-19.908c-5.688,0-9.48-1.739-9.48-8.374,0-6.479,4.107-8.059,9.8-8.059C852.471,3931.619,853.735,3936.043,852.155,3944.575Z" fill="#fff"/>
    <path d="M934,3948.052c-26.7,0-38.711-10.587-38.237-31.127H907.3c-.159,13.746,7.742,21.488,26.544,21.488,17.223,0,22.911-6.636,23.069-12.8.79-21.015-59.252-8.375-59.568-36.974-.316-13.746,9.8-23.384,34.445-23.384,25.6,0,34.761,12.167,34.761,29.863h-11.06c-.316-12.641-6.478-20.383-24.017-20.383-17.064,0-22.594,5.847-22.278,13.273.316,18.486,59.409,7.584,59.409,36.972C968.6,3936.517,958.962,3948.052,934,3948.052Z" fill="#fff"/>
    <path d="M1033.852,3947.1l-41.4-37.447V3947.1H980.762V3835.394h11.692V3899.7l36.973-33.5h17.381l-44.873,38.395,48.823,42.5Z" fill="#fff"/>
    <path d="M1064.817,3856.093c-5.531,0-9.007-1.58-9.007-7.269,0-6,3.476-7.11,9.007-7.11,5.214,0,8.69,1.106,8.69,7.11C1073.507,3854.513,1070.031,3856.093,1064.817,3856.093Zm-6.005,91.01v-80.9h11.693v80.9Z" fill="#fff"/>
    <path d="M1086.46,3947.1V3835.394h11.693V3947.1Z" fill="#fff"/>
    <path d="M1113.951,3947.1V3835.394h11.693V3947.1Z" fill="#fff"/>
    <path d="M1175.414,3948.052c-26.7,0-38.712-10.587-38.237-31.127h11.534c-.158,13.746,7.742,21.488,26.545,21.488,17.222,0,22.91-6.636,23.068-12.8.791-21.015-59.251-8.375-59.567-36.974-.316-13.746,9.8-23.384,34.445-23.384,25.6,0,34.761,12.167,34.761,29.863H1196.9c-.317-12.641-6.479-20.383-24.017-20.383-17.065,0-22.6,5.847-22.279,13.273.316,18.486,59.41,7.584,59.41,36.972C1210.017,3936.517,1200.379,3948.052,1175.414,3948.052Z" fill="#fff"/>
    <path d="M1237.031,3944.575l-4.424,23.385h-7.584l2.528-19.908c-5.688,0-9.48-1.739-9.48-8.374,0-6.479,4.107-8.059,9.8-8.059C1237.347,3931.619,1238.611,3936.043,1237.031,3944.575Z" fill="#fff"/>
    <path d="M1349.526,3947.1,1347,3930.671c-4.424,9.954-17.222,17.381-34.129,17.381-17.222,0-31.127-7.427-31.127-24.017,0-14.694,10.27-20.857,33.181-23.543l29.389-3.477c-.158-14.536-4.9-22.278-25.281-22.278-18.486,0-23.384,7.584-23.384,19.593h-11.693c0-16.749,7.11-29.073,34.919-29.073,32.549,0,37.289,13.9,37.289,35.393V3947.1Zm-5.214-41.081-27.651,3.792c-16.59,2.37-22.594,5.846-22.594,14.063,0,9.638,8.058,14.694,21.33,14.694,16.116,0,28.915-9.164,28.915-27.018Z" fill="#fff"/>
    <path d="M1432.158,3947.1V3903.02c0-17.38-3.317-27.651-24.016-27.651s-25.281,9.954-25.281,27.651V3947.1h-11.85v-80.9h5.53l3.476,14.694c3.16-8.374,11.85-15.642,31.285-15.642,27.493,0,32.707,15.327,32.707,38.711V3947.1Z" fill="#fff"/>
    <path d="M1525.063,3947.1l-2.37-15.168c-3.16,8.533-12.325,16.117-32.391,16.117-27.967,0-35.393-18.645-35.393-41.556,0-22.6,7.11-41.239,35.077-41.239,18.17,0,26.7,6.478,30.021,14.694v-44.557h11.85V3947.1Zm-31.443-71.734c-22.121,0-26.7,12.641-26.7,31.127,0,18.961,4.74,31.6,26.229,31.6,22.437,0,27.177-12.326,27.177-31.6C1520.323,3888.641,1516.373,3875.369,1493.62,3875.369Z" fill="#fff"/>
    <path d="M1619.543,3948.052c-33.023,0-40.449-20.067-40.449-41.871,0-20.858,8.216-40.924,40.291-40.924,28.283,0,36.657,17.854,36.657,40.291,0,2.213,0,3.793-.158,6.005h-64.308c.79,15.958,8.058,27.176,27.651,27.176,16.906,0,23.068-8.374,24.491-16.907h12.324C1654.778,3935.727,1645.455,3948.052,1619.543,3948.052Zm-1.106-73.315c-20.541,0-26.387,12.8-26.861,27.335h52.142C1643.718,3886.588,1636.765,3874.737,1618.437,3874.737Z" fill="#fff"/>
    <path d="M1721.136,3947.1l-26.386-34.6-26.387,34.6h-13.9l33.181-41.713-31.917-39.185h13.431l25.281,32.075,25.6-32.075h12.956l-31.6,39.185L1735.2,3947.1Z" fill="#fff"/>
    <path d="M1783.861,3948.052c-18.171,0-26.7-6.953-30.021-15.011V3978.7h-11.692v-112.5h6.636s.79,4.74,2.37,14.694c3.16-8.374,12.324-15.642,32.391-15.642,27.966,0,35.393,18.644,35.393,41.555C1818.938,3929.565,1811.828,3948.052,1783.861,3948.052Zm-3.16-73.157c-22.437,0-27.177,12.8-27.177,31.917,0,18.17,3.95,31.127,26.7,31.127,22.12,0,26.7-12.64,26.7-31.127C1806.929,3887.851,1802.347,3874.9,1780.7,3874.9Z" fill="#fff"/>
    <path d="M1868.231,3948.052c-33.023,0-40.45-20.067-40.45-41.871,0-20.858,8.217-40.924,40.292-40.924,28.283,0,36.657,17.854,36.657,40.291,0,2.213,0,3.793-.158,6.005h-64.308c.79,15.958,8.058,27.176,27.651,27.176,16.906,0,23.068-8.374,24.491-16.907h12.324C1903.466,3935.727,1894.143,3948.052,1868.231,3948.052Zm-1.106-73.315c-20.541,0-26.387,12.8-26.861,27.335h52.142C1892.406,3886.588,1885.453,3874.737,1867.125,3874.737Z" fill="#fff"/>
    <path d="M1928.426,3902.7v44.4h-11.851v-80.9h5.373l3.634,13.9c3.159-8.216,11.692-15.484,30.81-15.168v10.744C1933.008,3874.579,1928.426,3885.166,1928.426,3902.7Z" fill="#fff"/>
    <path d="M1970.927,3856.093c-5.531,0-9.007-1.58-9.007-7.269,0-6,3.476-7.11,9.007-7.11,5.213,0,8.689,1.106,8.689,7.11C1979.616,3854.513,1976.14,3856.093,1970.927,3856.093Zm-6,91.01v-80.9h11.693v80.9Z" fill="#fff"/>
    <path d="M2028.911,3948.052c-33.023,0-40.449-20.067-40.449-41.871,0-20.858,8.216-40.924,40.291-40.924,28.283,0,36.657,17.854,36.657,40.291,0,2.213,0,3.793-.158,6.005h-64.307c.79,15.958,8.058,27.176,27.65,27.176,16.907,0,23.069-8.374,24.491-16.907h12.324C2064.146,3935.727,2054.824,3948.052,2028.911,3948.052Zm-1.106-73.315c-20.54,0-26.386,12.8-26.86,27.335h52.141C2053.086,3886.588,2046.134,3874.737,2027.805,3874.737Z" fill="#fff"/>
    <path d="M2138.4,3947.1V3903.02c0-17.38-3.318-27.651-24.017-27.651s-25.281,9.954-25.281,27.651V3947.1h-11.85v-80.9h5.53l3.476,14.694c3.16-8.374,11.851-15.642,31.285-15.642,27.493,0,32.707,15.327,32.707,38.711V3947.1Z" fill="#fff"/>
    <path d="M2200.655,3948.052c-31.759,0-39.5-19.91-39.5-41.4s7.9-41.4,39.027-41.4c24.807,0,36.026,12.8,36.026,32.865H2224.2c-.79-14.536-7.426-22.753-24.175-22.753-21.33,0-27.019,13.747-27.019,31.127s5.53,31.6,27.177,31.6c16.908,0,23.385-8.375,24.017-22.595h12.009C2236.207,3935.727,2225.3,3948.052,2200.655,3948.052Z" fill="#fff"/>
    <path d="M2286.448,3948.052c-33.023,0-40.449-20.067-40.449-41.871,0-20.858,8.216-40.924,40.291-40.924,28.283,0,36.657,17.854,36.657,40.291,0,2.213,0,3.793-.158,6.005h-64.308c.79,15.958,8.059,27.176,27.651,27.176,16.907,0,23.069-8.374,24.491-16.907h12.324C2321.683,3935.727,2312.361,3948.052,2286.448,3948.052Zm-1.106-73.315c-20.54,0-26.387,12.8-26.861,27.335h52.142C2310.623,3886.588,2303.671,3874.737,2285.342,3874.737Z" fill="#fff"/>
    <path d="M2431.489,3947.1V3903.02c0-17.38-3.318-27.651-24.017-27.651s-25.28,9.954-25.28,27.651V3947.1h-11.85v-80.9h5.53l3.475,14.694c3.161-8.374,11.851-15.642,31.286-15.642,27.493,0,32.707,15.327,32.707,38.711V3947.1Z" fill="#fff"/>
    <path d="M2494.688,3948.052c-33.023,0-40.449-20.067-40.449-41.871,0-20.858,8.216-40.924,40.291-40.924,28.283,0,36.657,17.854,36.657,40.291,0,2.213,0,3.793-.158,6.005h-64.308c.79,15.958,8.059,27.176,27.651,27.176,16.907,0,23.069-8.374,24.491-16.907h12.324C2529.924,3935.727,2520.6,3948.052,2494.688,3948.052Zm-1.106-73.315c-20.54,0-26.387,12.8-26.861,27.335h52.142C2518.863,3886.588,2511.911,3874.737,2493.582,3874.737Z" fill="#fff"/>
    <path d="M2578.584,3948.052c-31.759,0-39.5-19.91-39.5-41.4s7.9-41.4,39.027-41.4c24.807,0,36.025,12.8,36.025,32.865h-12.008c-.79-14.536-7.427-22.753-24.175-22.753-21.331,0-27.019,13.747-27.019,31.127s5.531,31.6,27.177,31.6c16.906,0,23.385-8.375,24.017-22.595h12.008C2614.135,3935.727,2603.232,3948.052,2578.584,3948.052Z" fill="#fff"/>
    <path d="M2664.376,3948.052c-33.024,0-40.449-20.067-40.449-41.871,0-20.858,8.215-40.924,40.291-40.924,28.283,0,36.657,17.854,36.657,40.291,0,2.213,0,3.793-.158,6.005h-64.308c.79,15.958,8.059,27.176,27.65,27.176,16.908,0,23.07-8.374,24.492-16.907h12.324C2699.611,3935.727,2690.289,3948.052,2664.376,3948.052Zm-1.107-73.315c-20.54,0-26.386,12.8-26.86,27.335h52.142C2688.551,3886.588,2681.6,3874.737,2663.269,3874.737Z" fill="#fff"/>
    <path d="M2746.849,3948.052c-26.7,0-38.711-10.587-38.237-31.127h11.534c-.157,13.746,7.742,21.488,26.545,21.488,17.223,0,22.911-6.636,23.07-12.8.789-21.015-59.252-8.375-59.569-36.974-.316-13.746,9.8-23.384,34.445-23.384,25.6,0,34.761,12.167,34.761,29.863h-11.06c-.316-12.641-6.478-20.383-24.017-20.383-17.064,0-22.595,5.847-22.278,13.273.315,18.486,59.409,7.584,59.409,36.972C2781.452,3936.517,2771.814,3948.052,2746.849,3948.052Z" fill="#fff"/>
    <path d="M2827.585,3948.052c-26.7,0-38.711-10.587-38.238-31.127h11.535c-.159,13.746,7.742,21.488,26.545,21.488,17.222,0,22.911-6.636,23.069-12.8.79-21.015-59.252-8.375-59.569-36.974-.315-13.746,9.8-23.384,34.446-23.384,25.6,0,34.761,12.167,34.761,29.863h-11.061c-.315-12.641-6.478-20.383-24.017-20.383-17.064,0-22.594,5.847-22.278,13.273.316,18.486,59.409,7.584,59.409,36.972C2862.187,3936.517,2852.55,3948.052,2827.585,3948.052Z" fill="#fff"/>
    <path d="M2938.974,3947.1l-2.528-16.432c-4.424,9.954-17.223,17.381-34.129,17.381-17.223,0-31.127-7.427-31.127-24.017,0-14.694,10.27-20.857,33.181-23.543l29.389-3.477c-.159-14.536-4.9-22.278-25.281-22.278-18.486,0-23.385,7.584-23.385,19.593H2873.4c0-16.749,7.11-29.073,34.919-29.073,32.549,0,37.289,13.9,37.289,35.393V3947.1Zm-5.214-41.081-27.651,3.792c-16.591,2.37-22.595,5.846-22.595,14.063,0,9.638,8.059,14.694,21.33,14.694,16.118,0,28.916-9.164,28.916-27.018Z" fill="#fff"/>
    <path d="M2972.309,3902.7v44.4h-11.85v-80.9h5.372l3.634,13.9c3.16-8.216,11.692-15.484,30.811-15.168v10.744C2976.891,3874.579,2972.309,3885.166,2972.309,3902.7Z" fill="#fff"/>
    <path d="M3081.645,3947.262c0,15.642-5.688,32.39-37.131,32.39-29.231,0-36.815-12.008-36.815-28.125h11.851c.315,10.587,4.108,18.645,24.964,18.645,21.647,0,25.281-10.428,25.281-22.12v-13.905c-3.476,8.374-11.534,13.905-28.441,13.905-27.335,0-32.707-14.853-32.707-38.4v-43.451h11.693v44.4c0,17.381,3.475,27.335,24.174,27.335,20.857,0,25.281-10.112,25.281-27.808v-43.926h11.85Z" fill="#fff"/>
    <path d="M3151,3876v47.4c0,9.955,4.108,14.537,19.592,14.537,1.739,0,3.477,0,5.531-.158v9.8c-2.529.158-4.9.316-7.111.316-21.014,0-30.02-6.952-30.02-24.491V3876h-11.061v-7.426l11.061-2.686V3845.98h11.534v20.225h25.6v9.8Z" fill="#fff"/>
    <path d="M3216.259,3948.052c-30.653,0-38.553-20.067-38.553-41.4,0-21.173,8.058-41.4,38.711-41.4s38.711,20.224,38.711,41.4C3255.128,3928.142,3247.07,3948.052,3216.259,3948.052Zm.158-72.683c-21.33,0-26.7,14.221-26.7,31.285s5.214,31.6,26.545,31.6c21.489,0,26.861-14.22,26.861-31.6C3243.12,3889.748,3237.906,3875.369,3216.417,3875.369Z" fill="#fff"/>
    <path d="M491.761,4137.651c-18.171,0-26.7-6.952-30.021-15.011V4168.3H450.048v-112.5h6.636s.79,4.74,2.37,14.694c3.16-8.374,12.324-15.643,32.391-15.643,27.966,0,35.393,18.645,35.393,41.556C526.838,4119.165,519.728,4137.651,491.761,4137.651ZM488.6,4064.5c-22.437,0-27.177,12.8-27.177,31.917,0,18.17,3.95,31.127,26.7,31.127,22.12,0,26.7-12.641,26.7-31.127C514.829,4077.451,510.247,4064.5,488.6,4064.5Z" fill="#fff"/>
    <path d="M576.131,4137.651c-33.023,0-40.45-20.066-40.45-41.871,0-20.857,8.217-40.924,40.291-40.924,28.284,0,36.658,17.855,36.658,40.291,0,2.213,0,3.793-.159,6.005H548.164c.79,15.958,8.058,27.177,27.651,27.177,16.906,0,23.068-8.374,24.49-16.907H612.63C611.365,4125.327,602.043,4137.651,576.131,4137.651Zm-1.106-73.314c-20.541,0-26.387,12.8-26.861,27.335H600.3C600.3,4076.187,593.353,4064.337,575.025,4064.337Z" fill="#fff"/>
    <path d="M636.326,4092.3v44.4h-11.85v-80.9h5.372l3.634,13.9c3.16-8.216,11.692-15.485,30.811-15.168v10.744C640.908,4064.179,636.326,4074.765,636.326,4092.3Z" fill="#fff"/>
    <path d="M690.675,4065.6v71.1H678.983v-71.1h-10.9v-7.267l10.9-2.37v-7.742c0-19.277,11.218-25.6,37.289-24.017v9.8c-19.908-1.107-25.439,3.16-25.439,14.379v7.426h25.439v9.8Z" fill="#fff"/>
    <path d="M753.719,4137.651c-30.653,0-38.554-20.066-38.554-41.4,0-21.173,8.058-41.4,38.711-41.4s38.712,20.225,38.712,41.4C792.588,4117.742,784.53,4137.651,753.719,4137.651Zm.157-72.682c-21.33,0-26.7,14.22-26.7,31.285s5.214,31.6,26.545,31.6c21.488,0,26.86-14.219,26.86-31.6C780.579,4079.348,775.365,4064.969,753.876,4064.969Z" fill="#fff"/>
    <path d="M816.284,4092.3v44.4h-11.85v-80.9h5.372l3.635,13.9c3.159-8.216,11.692-15.485,30.81-15.168v10.744C820.866,4064.179,816.284,4074.765,816.284,4092.3Z" fill="#fff"/>
    <path d="M953.272,4136.7v-47.56c0-14.694-3.318-24.016-18.644-24.016-15.485,0-19.593,9.006-19.593,24.016v47.56H903.027v-47.56c0-14.694-3.635-24.016-18.961-24.016s-19.593,9.006-19.593,24.016v47.56h-11.85v-80.9H858l3.635,12.64c2.843-7.11,10.9-13.589,25.912-13.589,13.9,0,21.173,5.847,24.175,15.8,2.37-8.532,10.27-15.8,26.387-15.8,22.279,0,27.335,15.011,27.335,34.919V4136.7Z" fill="#fff"/>
    <path d="M1080.458,4136.7l-2.528-16.433c-4.424,9.954-17.222,17.381-34.129,17.381-17.222,0-31.127-7.427-31.127-24.016,0-14.7,10.271-20.858,33.181-23.543l29.389-3.477c-.158-14.536-4.9-22.278-25.28-22.278-18.487,0-23.385,7.584-23.385,19.593h-11.693c0-16.749,7.11-29.074,34.919-29.074,32.549,0,37.289,13.9,37.289,35.394V4136.7Zm-5.214-41.081-27.65,3.792c-16.591,2.37-22.6,5.846-22.6,14.062,0,9.638,8.058,14.7,21.33,14.7,16.117,0,28.915-9.164,28.915-27.019Z" fill="#fff"/>
    <path d="M1117.271,4065.6V4113c0,9.955,4.108,14.537,19.593,14.537,1.738,0,3.476,0,5.53-.158v9.8c-2.528.158-4.9.316-7.11.316-21.015,0-30.021-6.952-30.021-24.491v-47.4H1094.2v-7.425l11.061-2.687V4035.58H1116.8v20.225h25.6v9.8Z" fill="#fff"/>
    <path d="M1253.466,4136.7l-2.528-16.433c-4.424,9.954-17.222,17.381-34.129,17.381-17.222,0-31.127-7.427-31.127-24.016,0-14.7,10.27-20.858,33.181-23.543l29.389-3.477c-.158-14.536-4.9-22.278-25.281-22.278-18.486,0-23.384,7.584-23.384,19.593h-11.693c0-16.749,7.11-29.074,34.919-29.074,32.549,0,37.289,13.9,37.289,35.394V4136.7Zm-5.214-41.081-27.651,3.792c-16.59,2.37-22.594,5.846-22.594,14.062,0,9.638,8.058,14.7,21.33,14.7,16.116,0,28.915-9.164,28.915-27.019Z" fill="#fff"/>
    <path d="M1352.212,4137.651c-18.17,0-26.7-6.952-30.02-15.011V4168.3H1310.5v-112.5h6.637s.79,4.74,2.37,14.694c3.159-8.374,12.324-15.643,32.39-15.643,27.967,0,35.393,18.645,35.393,41.556C1387.289,4119.165,1380.179,4137.651,1352.212,4137.651Zm-3.16-73.156c-22.437,0-27.177,12.8-27.177,31.917,0,18.17,3.95,31.127,26.7,31.127,22.121,0,26.7-12.641,26.7-31.127C1375.281,4077.451,1370.7,4064.5,1349.052,4064.5Z" fill="#fff"/>
    <path d="M1411.933,4092.3v44.4h-11.85v-80.9h5.372l3.635,13.9c3.159-8.216,11.691-15.485,30.81-15.168v10.744C1416.515,4064.179,1411.933,4074.765,1411.933,4092.3Z" fill="#fff"/>
    <path d="M1478.136,4137.651c-30.653,0-38.554-20.066-38.554-41.4,0-21.173,8.058-41.4,38.711-41.4s38.712,20.225,38.712,41.4C1517.005,4117.742,1508.947,4137.651,1478.136,4137.651Zm.157-72.682c-21.33,0-26.7,14.22-26.7,31.285s5.214,31.6,26.545,31.6c21.488,0,26.86-14.219,26.86-31.6C1505,4079.348,1499.782,4064.969,1478.293,4064.969Z" fill="#fff"/>
    <path d="M1542.124,4065.6v71.1h-11.692v-71.1h-10.9v-7.267l10.9-2.37v-7.742c0-19.277,11.218-25.6,37.289-24.017v9.8c-19.909-1.107-25.439,3.16-25.439,14.379v7.426h25.439v9.8Z" fill="#fff"/>
    <path d="M1607.063,4137.651c-33.023,0-40.449-20.066-40.449-41.871,0-20.857,8.216-40.924,40.291-40.924,28.283,0,36.657,17.855,36.657,40.291,0,2.213,0,3.793-.158,6.005H1579.1c.79,15.958,8.059,27.177,27.651,27.177,16.907,0,23.069-8.374,24.491-16.907h12.324C1642.3,4125.327,1632.976,4137.651,1607.063,4137.651Zm-1.106-73.314c-20.541,0-26.386,12.8-26.861,27.335h52.142C1631.238,4076.187,1624.286,4064.337,1605.957,4064.337Z" fill="#fff"/>
    <path d="M1689.537,4137.651c-26.7,0-38.712-10.587-38.237-31.127h11.534c-.158,13.746,7.742,21.489,26.545,21.489,17.222,0,22.91-6.636,23.069-12.8.79-21.015-59.252-8.375-59.568-36.974-.316-13.746,9.8-23.385,34.445-23.385,25.6,0,34.761,12.167,34.761,29.864h-11.06c-.317-12.641-6.479-20.383-24.017-20.383-17.065,0-22.6,5.846-22.279,13.272.316,18.487,59.41,7.584,59.41,36.973C1724.14,4126.117,1714.5,4137.651,1689.537,4137.651Z" fill="#fff"/>
    <path d="M1770.273,4137.651c-26.7,0-38.712-10.587-38.238-31.127h11.535c-.158,13.746,7.742,21.489,26.545,21.489,17.222,0,22.91-6.636,23.068-12.8.79-21.015-59.252-8.375-59.568-36.974-.315-13.746,9.8-23.385,34.446-23.385,25.6,0,34.761,12.167,34.761,29.864h-11.061c-.315-12.641-6.478-20.383-24.017-20.383-17.064,0-22.594,5.846-22.278,13.272.316,18.487,59.41,7.584,59.41,36.973C1804.876,4126.117,1795.238,4137.651,1770.273,4137.651Z" fill="#fff"/>
    <path d="M1823.042,4045.692c-5.531,0-9.007-1.58-9.007-7.268,0-6,3.476-7.111,9.007-7.111,5.214,0,8.69,1.107,8.69,7.111C1831.732,4044.112,1828.256,4045.692,1823.042,4045.692Zm-6,91.011v-80.9h11.693v80.9Z" fill="#fff"/>
    <path d="M1879.131,4137.651c-30.653,0-38.554-20.066-38.554-41.4,0-21.173,8.059-41.4,38.711-41.4s38.712,20.225,38.712,41.4C1918,4117.742,1909.942,4137.651,1879.131,4137.651Zm.157-72.682c-21.33,0-26.7,14.22-26.7,31.285s5.214,31.6,26.545,31.6c21.488,0,26.86-14.219,26.86-31.6C1905.991,4079.348,1900.777,4064.969,1879.288,4064.969Z" fill="#fff"/>
    <path d="M1990.994,4136.7V4092.62c0-17.381-3.318-27.651-24.017-27.651s-25.28,9.954-25.28,27.651V4136.7h-11.851v-80.9h5.53l3.477,14.694c3.159-8.374,11.85-15.643,31.284-15.643,27.493,0,32.707,15.327,32.707,38.711V4136.7Z" fill="#fff"/>
    <path d="M2082.476,4136.7l-2.528-16.433c-4.424,9.954-17.222,17.381-34.129,17.381-17.222,0-31.127-7.427-31.127-24.016,0-14.7,10.271-20.858,33.181-23.543l29.389-3.477c-.158-14.536-4.9-22.278-25.28-22.278-18.487,0-23.385,7.584-23.385,19.593h-11.692c0-16.749,7.109-29.074,34.918-29.074,32.549,0,37.29,13.9,37.29,35.394V4136.7Zm-5.214-41.081-27.65,3.792c-16.591,2.37-22.6,5.846-22.6,14.062,0,9.638,8.058,14.7,21.33,14.7,16.117,0,28.915-9.164,28.915-27.019Z" fill="#fff"/>
    <path d="M2104.119,4136.7V4024.994h11.692V4136.7Z" fill="#fff"/>
    <path d="M2167.158,4136.7V4024.994h11.693V4136.7Z" fill="#fff"/>
    <path d="M2230.991,4137.651c-33.023,0-40.449-20.066-40.449-41.871,0-20.857,8.216-40.924,40.292-40.924,28.282,0,36.657,17.855,36.657,40.291,0,2.213,0,3.793-.158,6.005h-64.309c.79,15.958,8.059,27.177,27.652,27.177,16.906,0,23.068-8.374,24.49-16.907h12.325C2266.226,4125.327,2256.9,4137.651,2230.991,4137.651Zm-1.105-73.314c-20.542,0-26.388,12.8-26.862,27.335h52.142C2255.166,4076.187,2248.214,4064.337,2229.886,4064.337Z" fill="#fff"/>
    <path d="M2315.362,4136.7H2302.88l-35.078-80.9h13.273l28.125,70.312,29.547-70.312h13.588Z" fill="#fff"/>
    <path d="M2392.15,4137.651c-33.023,0-40.449-20.066-40.449-41.871,0-20.857,8.216-40.924,40.291-40.924,28.283,0,36.657,17.855,36.657,40.291,0,2.213,0,3.793-.158,6.005h-64.308c.79,15.958,8.059,27.177,27.651,27.177,16.907,0,23.069-8.374,24.491-16.907h12.324C2427.386,4125.327,2418.063,4137.651,2392.15,4137.651Zm-1.106-73.314c-20.54,0-26.387,12.8-26.861,27.335h52.142C2416.325,4076.187,2409.373,4064.337,2391.044,4064.337Z" fill="#fff"/>
    <path d="M2440.653,4136.7V4024.994h11.692V4136.7Z" fill="#fff"/>
    <path d="M2473.832,4137.651c-5.846,0-9.8-1.58-9.8-8.374,0-6.478,4.108-8.058,9.8-8.058,5.846,0,9.8,1.58,9.8,8.058C2483.629,4136.071,2479.678,4137.651,2473.832,4137.651Z" fill="#fff"/>
  </g>
</svg>
